<svg width="198" height="171" viewBox="0 0 198 171" fill="none" xmlns="http://www.w3.org/2000/svg">
<path d="M198 29.4237C197.422 29.0969 196.854 28.7792 196.286 28.4343C195.885 28.3344 195.438 28.2346 194.916 28.1347C193.63 28.3254 192.14 27.9169 190.472 27.4539C189.643 27.2179 188.758 26.9728 187.835 26.7912C186.913 26.6188 185.944 26.5189 184.947 26.5552C187.109 26.3011 180.382 25.5113 183.876 25.4115C182.366 24.6853 175.547 24.6308 172.593 23.6141C173.106 23.5596 173.012 23.4053 173.739 23.4507C169.453 23.1148 170.907 22.5883 167.767 22.0891L167.786 22.7064C166.537 22.7064 166.258 22.2162 165.168 22.1254C165.997 22.3523 167.739 22.9424 166.752 23.0241C165.289 22.9061 164.05 22.8879 162.494 22.6065C162.512 22.3796 163.621 22.4613 164.366 22.5248C164.366 22.5248 161.012 21.8712 160.835 21.5444C162.075 21.5626 163.63 21.844 164.748 21.6987C160.37 20.7365 164.432 21.4446 162.382 20.5913C162.615 20.9907 161.637 20.909 160.314 20.6548C159.009 20.3825 157.351 19.9649 156.158 19.7925C155.981 19.4657 157.826 20.0557 158.45 19.974C157.397 19.4294 156.466 19.0844 155.553 18.8393C155.106 18.7213 154.621 18.6215 154.137 18.5307C153.652 18.4399 153.168 18.3764 152.665 18.3038C152.357 18.2674 152.059 18.2311 151.742 18.2039C149.413 16.3067 146.925 14.8906 144.661 13.7105C144 13.3474 143.339 13.0206 142.714 12.6848C142.09 12.358 141.503 12.013 140.935 11.6953C139.807 11.0599 138.857 10.3609 138.084 9.61655C134.823 8.53633 130.882 7.54687 125.823 6.06724C125.758 6.2851 124.901 6.08539 124.099 5.90384C123.298 5.74044 122.553 5.63151 122.721 5.96738C125.05 6.89329 127.332 7.38348 129.494 7.9009C130.575 8.17322 131.609 8.46371 132.606 8.80865C133.584 9.18083 134.516 9.62563 135.354 10.1884C137.497 10.8783 136.966 10.2247 138 10.3972C138.922 10.7785 139.798 11.2142 140.46 11.5682C141.121 11.9222 141.559 12.24 141.615 12.4306C139.463 11.5501 139.053 11.6862 138.531 11.7135C138 11.7316 137.348 11.6772 134.674 10.5606C134.944 10.8693 136.155 11.4774 137.553 12.1038C138.922 12.7755 140.469 13.4654 141.373 14.001C140.721 13.9102 141.168 14.4186 142.276 15.1811C140.795 14.8271 137.711 13.6833 136.006 13.3293C136.649 13.3747 135.689 12.8209 136.193 12.9026C136.193 12.9026 135.829 12.7937 135.298 12.6303C135.028 12.5486 134.721 12.4578 134.376 12.3489C134.04 12.2581 133.677 12.1583 133.314 12.0584C132.587 11.8678 131.879 11.659 131.329 11.5228C130.78 11.3957 130.416 11.305 130.416 11.305C128.804 10.4154 128.45 9.92519 129.466 10.025C127.929 9.41685 125.767 8.84496 124.006 8.39108C122.245 7.93721 120.885 7.59226 120.969 7.23824C118.873 6.77528 119.18 6.97499 120.047 7.28363C120.913 7.61042 122.32 8.12784 122.469 8.264L122.106 8.20046C122.106 8.20046 123.205 8.46371 124.286 8.78142C124.826 8.93574 125.366 9.09006 125.776 9.19899C125.981 9.25345 126.149 9.30792 126.261 9.34423C126.382 9.38054 126.447 9.39869 126.447 9.39869C126.503 9.63471 126.233 9.62563 125.776 9.52578C125.32 9.42592 124.677 9.20806 123.997 8.98112C123.326 8.74511 122.599 8.52725 121.994 8.40016C121.388 8.27308 120.904 8.21861 120.68 8.36385C120.158 8.97205 118.668 8.50002 116.888 7.82828C116.003 7.51056 115.043 7.12931 114.102 6.82975C113.161 6.53927 112.248 6.29417 111.456 6.22155C111.456 6.22155 112.398 6.1217 113.348 6.02185C113.823 5.96738 114.298 5.922 114.661 5.88568C115.016 5.85845 115.258 5.8403 115.258 5.8403C115.258 5.8403 115.062 5.81307 114.764 5.77675C114.466 5.74044 114.065 5.70413 113.665 5.65875C112.863 5.57705 112.071 5.49535 112.071 5.49535C113.953 5.42273 114.075 4.68745 116.963 4.85085C115.873 4.61483 114.671 4.33343 113.422 4.10649C112.183 3.84324 110.897 3.62538 109.658 3.4166C108.419 3.19873 107.227 3.06257 106.165 2.92641C105.102 2.8084 104.161 2.75394 103.444 2.73578C102.363 2.27283 101.879 1.92788 102.41 1.60109C97.8634 1.95511 95.3851 0.920274 91.4534 0.974739C87.3261 1.44677 95.618 1.43769 92.6087 2.00958C91.9845 1.89157 91.1087 1.89157 90.2515 1.94604C89.5807 2.0005 88.9193 2.09128 88.3975 2.15482C88.6863 2.11851 89.0311 2.10035 89.441 2.09128C89.7578 2.09128 90.1025 2.07312 90.4752 2.0822C90.8478 2.0822 91.2392 2.10035 91.6398 2.10943C93.2702 2.14574 95.1056 2.30914 96.6056 2.41807C94.3602 2.38176 94.6118 2.89918 93.9876 3.10796C93.9876 3.10796 94.9193 3.14427 95.8509 3.18058C96.3168 3.19874 96.7826 3.21689 97.1274 3.24412C97.4721 3.26228 97.705 3.28043 97.705 3.28043C97.4441 3.87955 93.1398 3.23505 91.4255 3.62538C92.5062 3.03534 91.9006 3.02626 93 2.43622C92.1894 2.50884 91.2857 2.56331 90.3354 2.61777C89.3851 2.68132 88.3882 2.73578 87.41 2.77209C86.4317 2.82656 85.4721 2.87194 84.5776 2.8901C83.6832 2.90825 82.8634 2.93549 82.1739 2.90825C80.5342 2.83563 83.5062 2.49069 84.3633 2.25467C83.5807 1.93696 81.1584 2.78117 80.4783 2.39083C80.9348 1.96419 82.4627 2.15482 83.5807 1.93696C83.5807 1.93696 82.9845 1.98235 82.0994 2.05497C81.205 2.10943 80.0218 2.23652 78.8292 2.3636C77.6367 2.46345 76.4721 2.67224 75.587 2.79025C74.7019 2.91733 74.1149 2.99903 74.1149 2.99903C74.0776 2.77209 76.4162 2.31821 77.9162 2.17297C76.4627 2.26375 75.2236 2.43622 73.9379 2.73578C72.6615 3.05349 71.3292 3.45291 69.764 4.21542C68.1522 4.44236 66.4099 4.6693 65.1894 4.76915C63.9783 4.88716 63.2981 4.92347 63.7919 4.60575C62.3758 5.13225 63.4006 5.07779 63.4752 5.29565C61.3416 5.79491 60.205 6.27602 59.3012 6.72082C58.3975 7.15654 57.736 7.61949 56.4876 8.01891L58.5 7.82828C54.354 8.67249 57.7919 8.79957 54.1491 9.5984C54.5776 8.99928 54.177 8.58171 53.413 8.31846C52.9658 8.9085 50.618 9.38054 49.0901 9.92519C50.1894 9.99781 45.9876 11.4956 48.5963 11.0145C47.7485 11.4048 47.0217 11.7589 46.3509 12.0312C45.6801 12.3126 45.0745 12.5395 44.4969 12.7574C43.9193 12.9752 43.3696 13.1931 42.8292 13.4473C42.2795 13.7014 41.7578 14.0373 41.1988 14.4458C42.8199 13.8558 38.4969 16.1978 39.9876 15.871C39.1863 16.2522 38.4224 16.5609 37.7515 16.8241C37.0901 17.0964 36.5124 17.3052 36.0466 17.4323C35.1242 17.6865 34.6677 17.6229 34.9845 17.1963C36.1118 16.6698 37.9658 15.9527 37.677 15.6894C37.677 15.6894 37.5839 15.7348 37.4255 15.8074C37.2671 15.8891 37.0435 16.0071 36.764 16.1524C36.2236 16.4338 35.4969 16.815 34.7702 17.1872C34.0435 17.5594 33.3261 17.9407 32.7764 18.2311C32.2453 18.5307 31.882 18.7304 31.882 18.7304C30.354 19.3023 28.4627 20.21 27.9689 19.8923C27.2143 20.6639 25.8354 21.3629 24.5031 22.0346C24.1677 22.2071 23.8416 22.3705 23.5248 22.5339C23.2174 22.7064 22.9286 22.8879 22.6584 23.0604C22.118 23.4053 21.6894 23.7594 21.4472 24.1225C22.2671 23.3509 23.1242 22.8516 23.8789 22.5248C24.6429 22.198 25.2857 22.0165 25.677 21.8349L24.8571 22.425C24.9876 22.3523 25.1273 22.2797 25.323 22.1799C25.323 22.1799 24.8385 22.7245 24.3447 23.2692C24.1025 23.5324 23.8696 23.8229 23.6832 24.0317C23.5062 24.2405 23.3851 24.3857 23.3851 24.3857C24.6242 23.8229 24.6522 23.6504 24.7733 23.3509C24.8944 23.0604 25.118 22.661 26.7671 21.6987C28.4162 21.2176 26.9627 22.4431 25.5186 23.605C24.7919 24.186 24.0838 24.776 23.7484 25.1391C23.4224 25.4932 23.4596 25.6112 24.2609 25.2753C26.795 24.0498 25.9472 23.6413 27.7919 22.2071L27.2609 22.4976C27.2609 22.4976 27.531 22.316 27.941 22.0346C28.146 21.8894 28.3789 21.7351 28.6397 21.5626C28.9006 21.3992 29.1801 21.2176 29.4503 21.0361C30.559 20.328 31.677 19.62 31.677 19.62C32.0311 19.7471 30.7547 20.7184 30.7547 20.7184C33.5311 19.1661 35.2547 18.4762 36.9969 17.7319C37.4348 17.5503 37.8727 17.3506 38.3385 17.1691C38.8043 16.9784 39.2981 16.7878 39.8385 16.579C40.3696 16.3612 40.9472 16.1161 41.5901 15.8528C41.9068 15.7167 42.2422 15.5714 42.5963 15.4262C42.9503 15.2719 43.323 15.1175 43.7236 14.9632C43.472 15.0086 42.941 14.9632 42.8292 14.7454C42.7081 14.5184 42.9969 14.119 44.3851 13.4745C46.3416 12.4397 46.7795 12.7937 48.5031 12.1764C47.5155 12.6575 46.8075 13.5017 45.3168 13.7559L45.6708 14.2733C44.5621 14.9269 43.9099 15.3899 43.4441 15.753C42.9876 16.1433 42.7267 16.4247 42.4099 16.7152C42.0838 17.0147 41.7112 17.3143 41.0311 17.7319C40.6957 17.9406 40.2764 18.1767 39.7453 18.4671C39.4845 18.6033 39.1957 18.7576 38.8789 18.9301C38.5621 19.1026 38.2267 19.2932 37.8447 19.502C37.8074 19.7743 36.7081 20.5187 35.1988 21.3901C34.4348 21.8077 33.6056 22.3342 32.7391 22.8153C31.8727 23.3055 30.9783 23.7684 30.1491 24.1951L31.9379 23.6777C30.4472 24.9213 30.2236 24.885 29.8602 24.9031C29.4969 24.9122 29.0124 24.9848 27.0559 26.5008C25.9472 26.6551 24.4938 27.0817 23.5435 27.1725C22.5932 27.2724 22.1553 27.0636 23.1522 26.0469C22.3789 26.4735 21.7453 26.8548 21.1863 27.2088C20.6366 27.5719 20.1801 27.9259 19.7236 28.2709C18.8199 28.9699 17.9534 29.6325 16.6491 30.5312C14.6553 31.0849 17.0404 29.3965 16.3509 29.0606C14.4689 30.4313 12.2236 32.3104 13.8634 31.6387L10.0994 33.9443C9.92236 33.899 11.2081 32.9912 11.7205 32.6553C10.2298 33.5177 7.75156 35.6872 7.1087 36.4497C7.37889 36.2137 8.21739 35.4875 8.67391 35.2969C7.29503 36.4951 4.81676 38.6647 4.73291 38.9461C6.70806 37.1215 7.35093 37.5754 9.37267 35.6146C9.28882 35.896 9.1118 36.4588 7.86336 37.2395C9.98758 36.2137 11.823 34.8158 12.8851 34.6342C11.0869 35.4694 10.3696 36.595 10.0714 36.8855C11.5714 35.9686 14.3385 33.8899 15.1863 33.0729C15.5124 33.3089 16.8913 32.3285 18.0093 31.5388C19.0341 30.8217 19.8447 30.2679 19.4161 30.8943C19.9472 30.3406 21.6801 29.1968 22.7422 28.7248C22.8075 29.0334 20.1056 31.0395 19.118 32.1288C13.7609 36.2047 18.8944 31.6114 17.4596 32.3013C17.4596 32.3013 16.3975 33.0366 15.3447 33.7719C14.2919 34.5162 13.2391 35.2697 13.2391 35.2697C13.7329 35.0609 11.8603 36.8764 14.5901 34.9156C14.087 35.5511 13.2205 36.3953 12.177 37.2486C11.1335 38.1109 9.93167 38.9551 8.72981 39.5906C8.35714 40.1261 9.93168 38.9551 10.4255 38.6284C10.0621 39.1549 7.87266 41.6784 11.4037 39.3182C10.3975 39.99 12.8665 37.8386 10.9379 38.9007C12.2702 37.8295 16.2019 35.4785 14.9627 36.8492C15.3634 36.5314 15.8478 36.1411 16.3789 35.7145C16.9099 35.2969 17.469 34.8521 18.028 34.4073C18.587 33.9716 19.1367 33.5359 19.6304 33.1455C20.1242 32.7733 20.5714 32.4466 20.9068 32.1924C21.5031 32.2196 19.7888 33.082 19.1926 33.6992C19.1926 33.6992 19.4907 33.4814 19.9379 33.1637C20.3851 32.846 20.9814 32.4284 21.5776 32.0108C22.1739 31.5933 22.7702 31.1666 23.2174 30.858C23.6739 30.5493 23.9721 30.3496 23.9721 30.3496C23.9721 30.3496 23.5621 30.4949 23.1615 30.631C22.7609 30.7854 22.3509 30.9306 22.3509 30.9306C23.2826 30.395 24.1211 29.8958 24.8665 29.3602C25.6118 28.8337 26.2826 28.3072 26.9348 27.7807C28.2391 26.764 29.4224 25.7201 30.8478 24.7397C30.7919 25.1028 30.1584 25.6747 29.3106 26.3101C28.4627 26.9546 27.4006 27.6627 26.5248 28.3889C28.7609 27.8806 27.5497 27.345 30.6894 25.6202C31.1553 25.4659 31.3416 25.5385 31.2298 25.8109L33.4565 23.9954C34.0714 23.723 33.9689 23.8864 33.7453 24.068C35.5342 22.7336 35.4317 22.5793 35.5062 22.3614C35.5901 22.1435 35.8789 21.8621 38.7578 20.2645C35.087 21.7986 35.9255 22.0982 32.9907 23.6595C32.0404 23.9318 32.7764 23.3146 33.8478 22.5248C34.118 22.3342 34.4068 22.1254 34.6956 21.9257C34.9845 21.7351 35.2733 21.5444 35.5528 21.3629C36.0932 21.0089 36.5497 20.7002 36.736 20.5368C39.6894 19.1843 40.4348 19.8742 43.9193 17.7319C41.441 19.1933 44.0497 18.2856 40.3696 19.9922C38.4503 21.2086 41.5807 19.7289 42.1584 19.8469C43.0807 19.3023 41.236 19.5746 43.9845 18.4127L43.9099 18.5398C43.9099 18.5398 44.1708 18.3764 44.5621 18.1313C44.9627 17.9043 45.4938 17.5957 46.0155 17.2871C47.087 16.6698 48.1491 16.0616 48.1491 16.0616C48.6988 15.8891 49.2298 15.6531 49.7981 15.4625C50.3665 15.2628 50.9255 15.0449 51.4938 14.8089C52.6304 14.355 53.7671 13.8467 54.8758 13.3928C55.9938 12.9752 57.0745 12.5668 58.0807 12.2672C58.5838 12.1129 59.059 11.9767 59.5155 11.8769C59.9721 11.7679 60.4006 11.7044 60.8013 11.6862C60.8013 11.6862 60.5776 11.5864 60.354 11.4774C60.1398 11.3685 59.9161 11.2777 59.9161 11.2777C61.295 10.8693 62.9814 10.4154 64.5559 9.9615C64.9472 9.85257 65.3385 9.74364 65.7112 9.63471C66.0839 9.52578 66.4565 9.45316 66.8013 9.36238C67.5 9.18991 68.1149 9.03559 68.6087 8.89943C68.4131 9.11729 67.854 9.34422 67.0901 9.58024C66.7081 9.69825 66.2795 9.80718 65.823 9.95242C65.3665 10.0977 64.8913 10.2611 64.4068 10.4154C65.0404 10.2701 65.646 10.0977 66.2609 9.95242C66.8665 9.82534 67.472 9.68009 68.059 9.54393C69.2329 9.26253 70.3603 8.97205 71.4317 8.66341C71.9628 8.50002 72.4938 8.37293 73.0062 8.24584C73.5186 8.11876 74.0217 7.99167 74.5062 7.85551C75.4752 7.59226 76.3882 7.32901 77.2267 7.06576C74.646 7.02945 74.2826 7.12931 71.823 7.22008C73.4162 6.52111 74.441 6.4848 75.587 6.49388C76.7329 6.52111 77.9907 6.50296 80.1336 6.05816C80.3292 6.6482 78.8851 6.7299 80.0311 7.18377C80.4689 7.02945 80.9814 6.88421 81.5311 6.76621C82.0901 6.65728 82.6957 6.55742 83.3106 6.46665C84.5311 6.25786 85.7981 6.13078 86.8044 5.86753C87.3727 6.1217 87.177 6.41218 86.2919 6.67543C85.854 6.81159 85.2391 6.93868 84.4565 7.05669C83.6832 7.20193 82.7422 7.32901 81.6429 7.44702C80.795 7.41979 79.9286 7.48333 79.0714 7.59226C78.6429 7.64673 78.2143 7.71935 77.795 7.81012C77.3758 7.9009 76.9565 7.99167 76.5373 8.08245C74.8789 8.45463 73.295 8.79957 71.8882 8.79957C71.8882 8.79957 72 8.79957 72.1584 8.79957C72.3168 8.80865 72.5311 8.81773 72.7547 8.83588C73.1832 8.85404 73.6211 8.88127 73.6211 8.88127C72.8012 9.05374 72.0559 9.19899 71.3758 9.38054C70.6864 9.54393 70.0528 9.69825 69.4286 9.84349C68.8043 9.98873 68.1988 10.143 67.5745 10.3064C66.9503 10.4789 66.3074 10.6332 65.646 10.9056L65.7391 10.7876L64.5186 11.7407L66.0093 11.3504C65.059 11.9586 62.1429 13.302 61.2391 13.5562C65.7764 12.2853 65.8416 11.196 67.9379 10.2247C68.9907 10.0069 69.9037 9.88888 70.705 9.81626C71.5155 9.75271 72.2236 9.69825 72.8944 9.70733C74.2267 9.70733 75.3634 9.66194 76.7236 9.17175C77.0031 9.41685 79.3882 9.33515 77.5528 9.90703C75.2609 10.4426 73.5559 10.3428 73.3975 10.7785C75.8385 10.37 74.9534 10.7603 78.6522 10.0886C79.2764 9.46223 82.0062 8.59079 84.6801 7.93721C87.5031 7.41071 91.2112 7.30178 93.4751 7.44702C90.6149 7.51964 87.8012 8.19138 88.5373 8.5454C90.1677 7.88274 94.09 8.84496 93.2422 8.09153C94.0714 8.10968 95.0404 8.12784 96.028 8.14599C97.0155 8.1823 98.031 8.25492 98.9534 8.32754C100.789 8.50909 102.252 8.77234 102.401 9.11729C99.2981 9.12636 96.3075 8.63618 93.6708 8.77234C94.3975 8.7905 95.1056 8.97205 94.677 9.11729C94.677 9.11729 94.4348 9.11729 94.0714 9.09913C93.7081 9.08098 93.2236 9.08098 92.7391 9.08098C91.7702 9.08098 90.8012 9.08098 90.8012 9.08098C92.2733 9.21714 92.8602 9.33515 93.5404 9.40777C94.2298 9.50762 95.0124 9.52578 96.8758 9.53485C96.6429 9.47131 96.177 9.34423 96.5311 9.32607C97.4628 9.34423 98.6367 9.40777 99.5684 9.44408L99.6522 10.0614C100.351 10.0341 101.199 10.0795 102.168 10.1703C103.127 10.2883 104.208 10.4245 105.354 10.5969C106.5 10.7694 107.711 10.96 108.95 11.1507C109.575 11.2505 110.208 11.3231 110.832 11.4048C111.466 11.4956 112.099 11.5682 112.733 11.6227L112.258 11.6681C113.245 11.8678 114.019 11.9767 114.689 12.0221C115.36 12.0675 115.947 12.0221 116.534 12.013C117.708 11.9858 118.966 11.9041 121.118 12.4215C119.804 12.367 120.307 12.7665 120.447 13.0932C121.547 13.2113 122.339 13.5017 123.112 13.8467C123.494 14.0192 123.876 14.2007 124.295 14.3913C124.705 14.591 125.143 14.7998 125.646 15.0086C123.345 13.883 127.491 14.936 125.795 14.1735C125.814 14.0192 126.102 13.9919 126.55 14.0555C126.773 14.0827 127.044 14.1372 127.342 14.2007C127.63 14.2733 127.957 14.3732 128.292 14.473C128.963 14.6909 129.708 14.9269 130.407 15.2083C130.779 15.3536 131.134 15.4988 131.469 15.635C130.901 15.635 130.416 15.6531 130.146 15.753C129.969 15.6985 129.792 15.644 129.615 15.5896C128.208 15.1992 127.043 14.8815 128.199 15.6803C127.407 15.5533 126.643 15.4534 126.643 15.4534C125.199 15.6713 125.394 16.0071 125.236 16.2885C125.087 16.579 124.593 16.7969 121.789 16.9058C119.227 16.8241 119.339 16.5336 119.711 16.1705C120.084 15.8165 120.727 15.4353 119.217 15.2991L117.978 15.7802C117.978 15.7802 117.345 15.7257 116.711 15.6894L115.444 15.6168L115.826 15.5533C114.326 15.7711 111.578 15.8619 111.55 15.635C111.783 15.4353 113.413 15.3082 113.637 15.1175C113.022 15.2628 112.09 15.3172 110.991 15.3354C109.891 15.3626 108.643 15.3808 107.385 15.408C106.127 15.4534 104.87 15.5442 103.779 15.6894C102.68 15.8528 101.748 16.1161 101.134 16.4882C99.6336 16.4701 96.6056 16.933 96.9317 16.4973C96.3075 16.8604 94.6397 17.0783 92.8975 17.3143C92.0217 17.4414 91.1366 17.5594 90.3354 17.6956C89.5435 17.8317 88.8447 18.0042 88.3696 18.1767C88.5932 17.9497 86.6646 18.0314 85.2112 18.5035C87.2422 18.2584 86.0404 18.7304 84.7547 19.3023C83.8416 19.3023 82.1739 19.6835 80.6273 20.0013C79.0808 20.3371 77.6553 20.6367 77.1988 20.4279C74.5994 21.499 75.7081 21.6534 75.2515 22.2525C74.3385 22.2979 72.5311 22.779 71.0311 23.1058C69.5404 23.4689 68.3664 23.6867 68.7298 23.1875C70.2205 22.7699 73.5466 21.9166 72.7826 21.6534C69.9037 22.2525 71.618 22.1889 69.354 23.0059C69.4845 22.8244 67.6397 23.1058 68.0124 22.7608C66.6801 23.2964 64.7795 23.9409 62.8137 24.5854C65.9348 23.7412 61.0808 25.7836 62.9907 25.357C62.9907 25.357 63.6615 24.9576 64.3323 24.5673C64.6677 24.3675 65.0031 24.1678 65.264 24.0408C65.5155 23.8955 65.6832 23.8047 65.6832 23.8047C69.1863 22.5339 66.559 23.9137 67.9472 23.6141C66.4286 24.1951 65.3665 24.6217 64.5745 25.0393C63.7733 25.4478 63.2143 25.7746 62.6739 26.1195C62.1335 26.4554 61.6211 26.8185 60.8851 27.2451C60.5217 27.463 60.1025 27.6808 59.6087 27.9622C59.1149 28.2346 58.5466 28.5523 57.8572 28.8972C57.3075 29.0697 56.5528 29.3511 55.854 29.6144C55.1553 29.8776 54.5217 30.1227 54.2422 30.2679C56.0497 29.3239 55.4162 28.9154 54.2795 29.3239C52.91 30.3496 51.5218 30.9488 50.1801 31.5025C49.5 31.7657 48.8385 32.0199 48.177 32.2741C47.7578 32.4466 47.3571 32.6372 46.9565 32.8187C48.2143 32.3195 47.469 33.1364 46.882 33.6357C45.6708 34.4345 44.9627 34.9338 44.4969 35.197C44.0404 35.4603 43.8633 35.5057 43.7515 35.4875C43.5373 35.4421 43.6118 35.1063 42.4565 35.6509C38.6646 38.0746 35.5248 40.0354 32.6646 42.0415C29.8137 44.0476 27.2143 46.0719 24.6801 48.7226C24.6801 48.7226 25.4255 48.2505 26.1801 47.7785C26.5528 47.5425 26.9255 47.3156 27.205 47.1431C27.4845 46.9615 27.6708 46.8526 27.6708 46.8526L28.1553 45.6816C29.3385 44.9826 29.4503 45.3094 29.1615 45.963C28.882 46.6257 28.1832 47.5879 27.7547 48.2415C27.5404 48.2959 26.6366 49.0857 25.9099 49.6848C25.2019 50.293 24.6894 50.7287 25.2112 50.0025C25.2112 50.0025 24.4751 50.7922 23.7484 51.582C23.3758 51.9723 23.0311 52.3899 22.7702 52.6985C22.5093 53.0072 22.3323 53.2069 22.3323 53.2069C22.6491 53.0616 23.2733 52.4716 23.6646 52.1266C24.0745 51.7908 24.2329 51.6818 23.618 52.4807C23.059 52.9255 21.9782 53.9149 21.2702 54.5322C20.5714 55.1585 20.2081 55.3946 21.0093 54.2417C20.236 55.0859 19.3789 56.0754 18.8385 56.856C18.2981 57.6458 18.0186 58.1904 18.3074 58.0997C15.9876 60.95 17.9534 57.3553 18.8571 55.9392C16.9286 58.1541 16.7795 57.5732 17.2267 56.7743C17.2267 56.7743 17.059 56.974 16.8168 57.2736C16.5838 57.5822 16.2391 57.9635 15.9317 58.3811C15.3168 59.2071 14.6925 60.0332 14.6925 60.0332C15.1118 59.2253 14.9255 59.0891 15.3447 58.2812C14.4224 59.2979 13.7702 60.2783 13.1926 61.2405C12.6056 62.1936 12 63.0742 11.1708 63.9365L11.0217 65.0712C10.4534 65.8247 10.0062 66.5055 9.60559 67.1046C9.20497 67.7037 8.85093 68.212 8.56211 68.675C7.98448 69.6191 7.54658 70.3362 7.12732 71.0442C6.34472 72.4785 5.59006 73.8764 4.2205 77.1534L5.02175 76.1912C4.63977 77.4711 4.39751 78.3516 4.12732 79.0325C3.86645 79.7133 3.57763 80.1853 3.30744 80.739C3.03726 81.2837 2.72981 81.8919 2.38509 82.7906C2.30124 83.0175 2.19875 83.2626 2.1149 83.5258C2.03105 83.7982 1.94721 84.0886 1.86335 84.4064C1.68634 85.0418 1.50933 85.7952 1.32299 86.6757C1.17393 87.6833 1.03416 88.5911 0.931677 89.3899C0.810559 90.1887 0.791913 90.8786 0.773279 91.4324C0.754646 92.5308 0.857133 93.0663 1.18322 92.8394C1.13664 93.4113 1.11801 93.8742 1.07142 94.2646C1.02484 94.6549 0.959619 94.9635 0.894402 95.2268C0.745334 95.7624 0.568325 96.1436 0.40994 96.652C0.503108 97.5597 0.661499 98.9849 0.736033 100.519C0.80125 101.291 0.847839 102.08 0.857155 102.861C0.857155 103.251 0.857137 103.642 0.838504 104.014C0.838504 104.386 0.819881 104.758 0.791931 105.112C0.726714 104.64 0.652177 104.186 0.61491 103.742C0.577643 103.306 0.540381 102.879 0.503114 102.452C0.475163 102.026 0.43789 101.608 0.40994 101.182C0.38199 100.755 0.354051 100.328 0.363368 99.8745C0.027964 100.12 0.00931677 101.672 0 103.524C0 104.45 0.0838464 105.448 0.111797 106.392C0.13043 106.873 0.139764 107.336 0.158398 107.772C0.186348 108.208 0.195644 108.616 0.195644 108.988C0.307445 109.488 0.475166 110.286 0.680134 111.24C0.913054 112.211 1.19254 113.364 1.53726 114.526C2.20807 116.859 3.1118 119.3 3.8385 121.007C3.84782 120.145 4.08074 119.827 4.45341 120.108C4.81677 120.39 5.36646 121.243 6.0559 122.723C5.81366 122.532 6.02795 123.603 6.42857 124.992C6.63353 125.682 6.85714 126.453 7.09937 127.189C7.33229 127.924 7.55591 128.623 7.72361 129.159C7.35094 128.705 7.63045 129.948 7.78884 130.774C7.87269 131.183 7.91926 131.482 7.80746 131.41C7.69566 131.337 7.39752 130.892 6.90373 129.785C6.70808 129.104 6.6615 128.569 6.58696 127.988C6.50311 127.407 6.32608 126.798 5.93478 125.927C5.97205 127.116 6.62422 130.139 7.79813 133.216C7.73291 133.18 7.61179 133.062 7.47204 132.88C7.33229 132.699 7.17391 132.454 6.98758 132.172C6.62422 131.591 6.21427 130.838 5.8975 130.057C6.40061 130.847 6.29814 130.311 6.38199 130.13C5.69255 128.805 5.37578 128.215 5.2174 128.087C5.0497 127.96 5.06831 128.296 5.14285 128.777C5.29192 129.74 5.73912 131.301 5.34782 130.974C5.53415 131.337 5.76708 131.809 6 132.281C6.24224 132.753 6.45653 133.234 6.68014 133.625C7.02486 134.242 7.26709 134.605 7.22982 134.306C7.63976 135.885 8.89753 137.873 10.4068 139.788L11.0124 140.56C11.236 140.814 11.4503 141.068 11.6646 141.313C11.8789 141.568 12.0932 141.813 12.2981 142.058C12.5031 142.294 12.7081 142.493 12.9037 142.711C13.6863 143.556 14.3665 144.373 14.823 145.135C14.9907 145.18 13.854 143.501 15.6335 145.135C16.9472 146.342 17.4876 146.969 17.8137 147.441C17.9814 147.677 18.0932 147.876 18.2143 148.085C18.3447 148.294 18.4845 148.521 18.736 148.784C19.2298 149.038 20.5342 149.992 21.6615 150.854C21.941 151.072 22.2205 151.271 22.472 151.444C22.7236 151.625 22.9472 151.78 23.1335 151.907C23.4969 152.17 23.6832 152.324 23.5528 152.27C24.5683 152.887 24.1957 152.343 23.9348 151.852C23.6739 151.362 23.5248 150.936 24.941 151.753C25.472 151.961 25.9938 152.252 26.5248 152.588C27.0652 152.896 27.6149 153.259 28.1646 153.632C28.7143 154.013 29.264 154.403 29.8137 154.784C30.3634 155.166 30.9596 155.474 31.5279 155.774C32.7578 156.718 32.0497 156.4 30.8944 155.774C30.6056 155.611 30.2795 155.438 29.9627 155.266C29.646 155.075 29.3199 154.875 29.0217 154.685C28.4161 154.312 27.8758 153.995 27.5683 153.859C27.5683 153.859 28.0342 154.149 28.7422 154.576C29.0963 154.784 29.5062 155.039 29.9441 155.302C30.3913 155.547 30.8758 155.81 31.3603 156.064C32.3199 156.582 33.2795 157.108 34.0062 157.48C34.7422 157.835 35.236 158.061 35.236 158.061C36.3075 158.788 35.9814 158.779 35.1056 158.434C34.6677 158.261 34.0901 158.016 33.4845 157.707C32.8882 157.39 32.264 157.027 31.7143 156.691C32.0683 156.945 32.441 157.208 32.8323 157.453C33.2236 157.707 33.6149 157.962 34.0248 158.17C34.8447 158.606 35.6832 159.006 36.4565 159.35C36.8478 159.523 37.2205 159.677 37.5745 159.813C37.9286 159.95 38.264 160.04 38.5714 160.131C39.177 160.304 39.6522 160.394 39.941 160.394C40.4255 160.639 40.8634 160.857 41.264 161.039C41.6646 161.239 42.0466 161.402 42.4286 161.556C43.1832 161.874 43.9193 162.183 44.8323 162.655C43.8354 162.401 43.2764 162.482 42.5869 162.491C42.2422 162.491 41.8696 162.491 41.3851 162.391C40.91 162.292 40.323 162.119 39.5777 161.81C34.7422 159.559 41.6087 162.028 37.5466 160.049L36.9689 160.322C36.1677 159.75 35.3851 159.378 34.5559 159.024C34.1366 158.851 33.7267 158.679 33.2888 158.488C32.8603 158.288 32.4224 158.071 31.9658 157.816C31.0155 157.126 32.2826 157.789 32.9907 158.116C29.6739 156.291 27.2981 154.467 24.6242 153.25C24.8665 153.459 25.118 153.677 25.3789 153.895C25.6397 154.113 25.9286 154.303 26.2174 154.512C26.795 154.921 27.4006 155.338 28.0155 155.747C29.236 156.6 30.5777 157.299 31.8075 158.016C33.0373 158.742 34.2391 159.323 35.2174 159.859C36.1956 160.385 36.9596 160.876 37.4068 161.23C37.4068 161.23 38.0031 161.456 38.9068 161.792C39.354 161.956 39.8758 162.155 40.4348 162.364C40.7143 162.464 41.0031 162.573 41.3012 162.682C41.5994 162.782 41.8975 162.873 42.205 162.972C43.4161 163.354 44.618 163.744 45.5218 164.034C46.4348 164.298 47.0497 164.452 47.0497 164.452C47.087 164.343 46.3137 163.916 45.8851 163.59C45.6708 163.417 45.5497 163.272 45.6428 163.217C45.7453 163.163 46.0621 163.199 46.7609 163.345C47.2081 163.808 48.1025 164.343 49.3509 164.942C49.9752 165.251 50.6925 165.523 51.4938 165.805C52.2857 166.086 53.1615 166.386 54.0838 166.685C52.8727 165.741 60.2515 167.638 58.4814 166.667C56.6553 166.549 55.9099 165.814 55.6863 165.705C59.3012 166.558 56.3199 165.26 58.3043 165.705C59.1149 165.941 59.7298 166.068 60.1863 166.186C60.6429 166.295 60.941 166.386 61.1273 166.449C61.5093 166.576 61.4627 166.622 61.4162 166.667C61.3603 166.712 61.3044 166.767 61.6677 166.894C61.854 166.967 62.1336 167.048 62.5808 167.166C63.028 167.293 63.6335 167.42 64.4534 167.575C64.09 167.593 63.587 167.611 62.9814 167.611C62.3851 167.593 61.6677 167.575 60.8944 167.529C60.1118 167.484 59.2547 167.448 58.3603 167.339C57.4752 167.23 56.5528 167.085 55.6304 166.93C55.7143 167.103 56.6273 167.321 57.6988 167.575C57.9689 167.638 58.2484 167.711 58.5186 167.774C58.7981 167.838 59.0777 167.902 59.3478 167.965C59.795 168.074 60.2143 168.192 60.559 168.319C58.9006 167.647 62.3292 168.092 60.6429 167.602C61.3137 167.702 62.0031 167.793 62.7019 167.902C63.4006 168.001 64.1273 168.038 64.8541 168.11C65.5808 168.174 66.3168 168.228 67.0714 168.292C67.8261 168.346 68.5901 168.355 69.3634 168.392C70.1367 168.419 70.9099 168.446 71.7019 168.473H74.0963C75.7174 168.501 77.2733 168.446 78.8665 168.446C78.354 168.9 75.7081 169.063 73.2578 169.082C72.6522 169.091 72.0745 169.118 71.5528 169.136C71.0404 169.136 70.5932 169.154 70.2484 169.2C69.5683 169.272 69.2981 169.445 69.7919 169.781C70.6118 169.826 71.2267 169.853 71.7298 169.826C72.2329 169.799 72.6335 169.744 72.9969 169.708C73.7422 169.626 74.3944 169.563 75.6988 169.672C77.8137 170.298 83.1056 169.935 87.3913 169.799L85.4907 169.535C86.3013 169.399 87.4565 169.39 88.6491 169.372C89.8416 169.354 91.0714 169.372 92.0217 169.372L91.5373 169.517C91.5373 169.517 92.0031 169.454 92.4596 169.399C92.9255 169.327 93.3913 169.254 93.3913 169.254C93.6801 169.263 93.7547 169.29 93.7453 169.327C95.7857 168.955 101.04 168.873 104.944 168.283C104.916 168.056 103.947 168.138 102.745 168.301C102.149 168.392 101.488 168.482 100.863 168.573C100.239 168.646 99.6428 168.709 99.177 168.728C98.9161 168.7 97.8727 168.7 97.118 168.655C96.3634 168.61 95.8882 168.501 96.7547 168.292C97.9659 168.201 99.0932 168.083 100.174 167.947C101.255 167.82 102.298 167.629 103.36 167.466C103.891 167.384 104.422 167.293 104.972 167.203C105.522 167.112 106.071 167.012 106.658 166.912C107.236 166.812 107.832 166.721 108.457 166.631C109.081 166.549 109.733 166.449 110.413 166.349C110.413 166.349 109.975 166.376 109.537 166.404C109.099 166.431 108.661 166.449 108.661 166.449C109.509 166.195 110.525 165.977 111.652 165.814C112.22 165.732 112.807 165.65 113.422 165.559C114.037 165.469 114.671 165.36 115.314 165.242C120.084 164.724 111.969 166.485 114.876 166.249C113.981 166.631 112.705 166.803 111.596 166.976C110.488 167.148 109.565 167.321 109.351 167.638C109.351 167.638 109.547 167.656 109.835 167.675C110.124 167.693 110.506 167.72 110.898 167.738C111.671 167.784 112.453 167.829 112.453 167.829C113.683 167.466 115.006 167.275 116.245 167.139C116.87 167.075 117.466 167.012 118.016 166.957C118.565 166.894 119.068 166.803 119.506 166.685C119.506 166.685 119.022 166.712 118.537 166.74C118.295 166.758 118.053 166.767 117.866 166.767C117.689 166.767 117.568 166.776 117.568 166.776C117.848 166.24 119.655 166.231 120.55 166.122L119.143 165.668C117.773 165.904 116.646 166.204 115.602 166.485C114.559 166.767 113.609 166.994 112.575 166.921C113.786 166.694 114.606 166.458 115.258 166.249C115.91 166.041 116.385 165.868 116.898 165.687C117.922 165.342 119.05 164.924 121.947 164.325C122.273 164.552 120.857 164.661 120.307 164.997C121.323 164.888 122.311 164.588 123.457 164.207C124.025 164.025 124.63 163.835 125.301 163.644C125.637 163.553 125.991 163.472 126.354 163.381C126.717 163.29 127.099 163.199 127.5 163.118C127.062 163.281 126.55 163.481 126.075 163.662C125.59 163.835 125.143 164.016 124.817 164.162C124.174 164.47 124.062 164.67 125.292 164.57C125.292 164.57 125.683 164.334 126.084 164.098C126.279 163.98 126.475 163.862 126.624 163.762C126.773 163.671 126.866 163.608 126.866 163.608C128.357 163.29 127.817 163.662 128.422 163.508C129.484 163.272 129.317 163.172 129.317 163.027C129.317 162.954 129.345 162.873 129.587 162.764C129.829 162.646 130.286 162.519 131.106 162.292C131.627 162.246 132.745 162.019 132.307 162.292C134.189 161.711 134.627 161.529 135.019 161.293C135.41 161.066 135.755 160.821 137.441 160.077C134.329 161.184 133.947 160.431 137.106 159.205C137.674 159.024 138.205 158.824 138.717 158.606C139.23 158.388 139.724 158.189 140.199 157.989C140.674 157.78 141.13 157.589 141.568 157.399C142.016 157.217 142.435 156.99 142.854 156.8C143.683 156.409 144.475 156.055 145.276 155.756C146.059 155.42 146.832 155.129 147.652 154.912C147.652 154.912 148.09 154.585 148.519 154.258C148.742 154.104 148.947 153.922 149.106 153.795C149.264 153.668 149.366 153.577 149.366 153.577C148.901 154.149 149.581 153.804 150.55 153.241C151.034 152.951 151.593 152.615 152.115 152.306C152.618 151.97 153.093 151.662 153.429 151.48C153.801 151.58 152.292 152.579 150.671 153.523C149.087 154.521 147.382 155.456 147.606 155.865C150.494 154.476 149.404 155.356 148.593 156.055C148.975 155.847 149.283 155.674 149.506 155.52C149.739 155.365 149.898 155.238 150.019 155.12C150.252 154.902 150.289 154.775 150.27 154.666C150.233 154.449 149.972 154.331 150.54 153.786C150.568 153.84 150.904 153.686 151.37 153.45C151.835 153.205 152.432 152.905 152.953 152.588C154.006 151.98 154.863 151.535 154.146 152.288C154.77 151.898 155.255 151.562 155.637 151.253C156.028 150.945 156.307 150.645 156.587 150.373C157.137 149.828 157.602 149.347 158.516 148.766C158.394 149.138 158.264 149.592 158.609 149.701C158.721 149.429 161.068 147.904 161.506 147.586C161.031 147.813 162 146.587 160.081 148.276C160.137 148.094 160.463 147.768 160.91 147.386C161.348 146.996 161.935 146.569 162.466 146.106C163.537 145.208 164.543 144.373 164.357 144.282C164.646 144.4 165.671 143.483 166.882 142.339C167.189 142.049 167.506 141.758 167.814 141.441C168.121 141.123 168.429 140.805 168.736 140.496C169.342 139.879 169.938 139.307 170.441 138.862C169.901 138.554 169.118 139.498 168.307 140.542C167.506 141.595 166.575 142.639 165.904 142.593C166.481 141.922 167.32 141.086 168.233 140.079C168.708 139.589 169.211 139.062 169.733 138.508C170.245 137.937 170.767 137.347 171.298 136.747C171.568 136.448 171.839 136.139 172.109 135.84C172.379 135.531 172.63 135.204 172.891 134.887C173.404 134.242 173.916 133.598 174.419 132.953C174.904 132.299 175.351 131.637 175.78 130.992C176.208 130.348 176.627 129.73 176.953 129.104C179.907 125.21 177.345 129.358 178.295 128.786C175.854 132.626 174.811 133.289 172.453 136.43C173.208 135.658 174.009 134.696 174.866 133.679C175.304 133.18 175.696 132.626 176.106 132.082C176.506 131.537 176.916 130.983 177.317 130.429C178.071 129.313 178.77 128.187 179.385 127.189C179.963 126.163 180.429 125.246 180.764 124.529C181.071 124.03 181.351 123.594 181.593 123.195C181.854 122.795 182.096 122.45 182.339 122.124C182.814 121.479 183.307 120.962 183.736 120.381C184.621 119.228 185.59 117.948 186.578 115.252C185.897 115.796 185.87 115.642 185.012 117.203C185.478 115.76 186.382 114.217 186.95 112.683C187.081 111.666 185.748 114.916 186.363 112.737C186.755 111.948 187.491 110.214 187.612 110.64L187.509 111.004C187.891 109.705 188.171 108.834 188.46 108.189C188.739 107.554 189 107.146 189.205 106.737C189.419 106.338 189.615 105.956 189.783 105.375C189.876 105.094 189.96 104.749 190.025 104.341C190.062 104.132 190.099 103.914 190.137 103.669C190.165 103.415 190.183 103.151 190.202 102.852C190.062 103.015 189.997 103.36 189.904 103.787C189.801 104.214 189.689 104.74 189.466 105.276C189.196 105.657 189.158 105.121 189.242 104.241C189.289 103.805 189.345 103.269 189.41 102.707C189.475 102.153 189.55 101.581 189.643 101.055C189.736 101.272 189.848 100.819 189.997 100.129C190.137 99.4388 190.258 98.5128 190.435 97.7776C190.752 97.3146 190.621 98.2496 190.425 99.3934C190.342 99.9652 190.183 100.583 190.09 101.109C189.997 101.636 189.932 102.071 189.96 102.271C189.96 102.271 190.211 101.263 190.463 100.256C190.593 99.7474 190.668 99.2391 190.761 98.8578C190.835 98.4765 190.882 98.2224 190.882 98.2224L190.658 99.0666C190.658 99.0666 190.752 97.941 190.845 96.8063C190.901 96.2435 190.901 95.6807 190.919 95.254C190.929 94.8274 190.947 94.546 190.947 94.546C190.686 97.6686 190.193 95.953 190.314 94.6004C190.425 93.8288 190.565 93.0663 190.658 92.3492C190.742 91.6321 190.835 90.9694 190.929 90.4157C191.022 89.862 191.115 89.4172 191.227 89.1267C191.329 88.8453 191.422 88.7182 191.553 88.818C191.301 88.6183 191.208 87.5563 191.171 86.2037C191.152 85.8678 191.171 85.5047 191.134 85.1416C191.115 84.7785 191.096 84.3973 191.068 84.0251C191.022 83.2717 190.975 82.5182 190.938 81.8374C190.826 84.8239 190.528 82.2278 190.304 81.3835C190.304 81.3835 190.342 80.267 190.379 79.1414C190.398 78.5786 190.425 78.0158 190.407 77.5982C190.398 77.1806 190.398 76.8992 190.398 76.8992C190.603 78.0612 190.677 78.5877 190.742 78.7238C190.807 78.8691 190.854 78.624 190.901 78.2609C190.966 77.5437 190.957 76.3727 191.217 76.9083C191.385 77.2351 191.543 77.6618 191.637 78.161C191.73 78.6603 191.786 79.2322 191.832 79.8404C191.87 80.4395 191.907 81.0931 191.916 81.7376C191.916 82.3821 191.898 83.0447 191.898 83.6711C192 83.0538 192.065 82.4728 192.102 81.9373C192.14 81.4017 192.102 80.8934 192.075 80.4213C192 79.4682 191.86 78.633 191.683 77.8161C191.478 77.0082 191.264 76.2184 191.087 75.3651C190.994 74.9385 190.929 74.4937 190.854 74.0307C190.77 73.5587 190.705 73.0685 190.658 72.5329C190.779 72.5148 190.919 72.5874 191.078 72.896C191.152 73.0504 191.236 73.2682 191.311 73.5587C191.385 73.8492 191.469 74.2214 191.506 74.6934C191.553 74.3031 191.245 73.3499 190.91 72.1426C190.742 71.5435 190.584 70.8627 190.407 70.1728C190.211 69.4829 190.053 68.7567 189.941 68.0305C189.969 68.8202 189.894 70.4996 189.009 67.7582C189.009 67.7582 188.991 67.5221 188.953 67.1681C188.925 66.8141 188.842 66.3511 188.776 65.87C188.637 64.926 188.497 63.9819 188.497 63.9819C188.227 62.9108 187.938 62.3207 187.752 61.9576C187.556 61.5945 187.416 61.4674 187.276 61.3676C186.978 61.1769 186.699 61.0771 185.907 59.4522C185.907 59.4522 185.944 59.5975 185.991 59.8153C186.037 60.0332 186.093 60.3327 186.149 60.6232C186.261 61.2042 186.363 61.7942 186.363 61.7942C186.214 61.7488 186.028 61.4402 185.842 61.0135C185.646 60.5869 185.45 60.015 185.208 59.4885C184.742 58.4174 184.286 57.3735 184.006 57.437C184.435 58.4537 184.863 59.198 185.283 59.9696C185.674 60.7594 186.047 61.5764 186.373 62.6929C186.261 63.1922 185.935 62.5204 185.553 61.5854C185.357 61.1134 185.152 60.5778 184.929 60.0967C184.696 59.6156 184.463 59.189 184.276 58.9076C183.857 57.791 183.578 57.0104 183.354 56.4112C183.121 55.8212 182.963 55.4127 182.832 55.0405C182.702 54.6684 182.59 54.3143 182.441 53.8514C182.292 53.3884 182.115 52.7984 181.78 51.9632C181.957 51.8452 182.283 52.0722 182.674 52.4807C183.047 52.8982 183.494 53.4883 183.932 54.0602C184.37 54.632 184.807 55.1858 185.18 55.5307C185.553 55.8666 185.842 56.0118 186.019 55.7214C185.488 54.6502 184.863 53.4792 184.239 52.2719C183.596 51.0646 182.879 49.8573 182.236 48.6681C180.866 46.3261 179.609 44.1656 178.873 42.7768C178.239 41.9144 177.745 41.3062 177.354 40.8977C176.944 40.4983 176.646 40.2986 176.432 40.2169C176.003 40.0717 175.91 40.4348 175.882 40.8251C174.783 39.4544 174.373 38.701 173.786 37.7297C173.786 37.7297 173.879 37.8205 174.009 37.9475C174.14 38.0837 174.317 38.2653 174.484 38.4468C174.829 38.819 175.174 39.1821 175.174 39.1821C174.764 38.6647 174.382 38.1745 173.991 37.7206C173.599 37.2758 173.208 36.8401 172.845 36.4225C172.099 35.5965 171.438 34.7976 170.674 34.0533C169.938 33.2908 169.202 32.5282 168.401 31.7022C168 31.3028 167.581 30.8943 167.134 30.4586C166.696 30.0229 166.239 29.5599 165.745 29.0879C163.398 27.0454 163.957 28.28 164.208 29.0697C164.208 29.0697 164.05 28.9335 163.817 28.7248C163.584 28.516 163.276 28.2346 162.96 27.9713C162.326 27.4358 161.693 26.9002 161.693 26.9002L162 27.3177C161.171 27.2179 159.382 25.5295 157.752 24.2041C158.311 24.3312 158.87 24.4583 159.429 24.5763C161.683 25.0302 163.91 25.475 166.118 25.9198L162.792 25.6566C165.391 25.9016 169.863 26.7731 171.298 27.0908L170.925 27.0636C175.556 28.4978 176.376 27.2179 179.898 28.5704L179.162 28.5251C182.012 28.9608 184.239 29.4964 186.466 29.9865C188.683 30.4949 190.873 30.976 193.668 31.2665C194.134 31.3845 194.534 31.5025 194.888 31.6023C195.745 31.6023 196.593 31.5751 197.45 31.557C197.553 30.7854 197.702 30.0501 197.87 29.3239L198 29.4237ZM158.655 33.1092C158.376 32.6826 158.255 32.3558 158.534 32.4647C159.214 33.4269 161.497 35.5057 161.161 35.6691C161.161 35.6691 160.966 35.5057 160.761 35.3423C160.565 35.1789 160.36 35.0246 160.36 35.0246C160.863 35.5329 161.283 36.014 161.674 36.4316C162.056 36.8582 162.429 37.2213 162.717 37.5572C163.295 38.2289 163.742 38.7101 164.115 39.055C164.525 39.2093 164.655 39.1004 164.879 39.1095C164.991 39.1095 165.121 39.1549 165.317 39.2819C165.419 39.3455 165.531 39.4272 165.671 39.5361C165.801 39.6541 165.95 39.7994 166.137 39.99C167.581 42.0233 167.087 41.7601 166.453 41.3607C165.82 40.9522 165.075 40.4166 165.969 41.8236C165.969 41.8236 166.174 42.0324 166.472 42.3501C166.761 42.6679 167.171 43.0763 167.543 43.5211C168.298 44.4107 169.062 45.2913 169.062 45.2913C169.062 45.2913 169.137 45.5454 169.211 45.8087C169.248 45.9358 169.286 46.0629 169.314 46.1627L169.351 46.3261C169.779 47.0705 170.217 47.7876 170.655 48.4775C170.879 48.8224 171.102 49.1583 171.326 49.4942C171.54 49.83 171.755 50.175 171.96 50.5108C172.388 51.1826 172.817 51.8362 173.264 52.4807C173.702 53.1343 174.102 53.7969 174.531 54.4596C176.245 57.0921 177.866 59.8879 179.217 63.2829C179.087 63.3646 178.854 63.1195 178.575 62.6929C178.267 62.2663 177.904 61.649 177.54 60.9682C176.842 59.6065 175.957 58.0452 175.565 57.2373C175.798 58.3811 176.478 59.5793 177.093 60.9137C177.41 61.5764 177.755 62.2572 178.053 62.9561C178.323 63.6551 178.556 64.3722 178.724 65.0984C178.826 65.4252 178.947 65.7339 179.059 66.0334C179.171 66.333 179.264 66.6144 179.376 66.8867C179.581 67.4223 179.804 67.8762 180 68.2393C180.401 68.9655 180.745 69.3013 180.839 69.0472C181.882 72.3151 181.071 71.489 181.071 71.9338C181.183 72.0518 181.304 72.2152 181.416 72.424C181.519 72.6328 181.612 72.896 181.705 73.1775C181.882 73.7493 182.059 74.4574 182.227 75.229C182.32 75.6102 182.366 76.0096 182.432 76.409C182.488 76.8175 182.544 77.2169 182.609 77.6164C182.665 78.0158 182.73 78.4152 182.786 78.7874C182.832 79.1686 182.87 79.5408 182.907 79.8857L182.534 80.0401C182.534 80.0401 182.739 81.1021 182.944 82.1642C183.093 83.2354 183.233 84.3156 183.233 84.3156C183.242 83.199 183.615 84.1976 183.857 84.1885V85.305C184.081 84.243 184.146 83.0901 184.099 81.9191C184.053 81.3382 183.978 80.739 183.904 80.1399C183.866 79.8404 183.82 79.5408 183.773 79.2412C183.736 78.9417 183.68 78.6421 183.615 78.3426C183.494 77.7435 183.373 77.1443 183.261 76.5543C183.158 75.9642 183.075 75.3742 182.953 74.7933C182.851 74.2123 182.776 73.6313 182.73 73.0594C182.711 72.769 182.702 72.4785 182.702 72.1971C182.683 71.9157 182.683 71.6343 182.683 71.3438C183.149 72.6237 182.916 70.8173 183.382 72.1154C183.559 73.2319 183.55 73.4679 183.429 73.6132C183.857 74.2214 184.472 75.9733 183.997 73.6132C184.845 73.5678 185.478 78.3789 185.898 81.7013C185.814 82.373 185.683 82.5364 185.581 82.3821C185.525 82.3094 185.478 82.1551 185.422 81.9463C185.357 81.7376 185.292 81.4743 185.227 81.1838C184.957 80.0128 184.677 78.3516 184.36 77.7071C184.416 78.0158 184.491 78.3063 184.565 78.6058C184.63 78.9054 184.696 79.1959 184.761 79.5136C184.882 80.149 184.975 80.857 184.947 81.7739L184.314 81.3654C184.36 81.6468 184.398 81.8919 184.435 82.1188C184.463 82.3458 184.481 82.5364 184.509 82.7089C184.556 83.0447 184.603 83.2989 184.64 83.4623C184.724 83.8072 184.798 83.8436 184.873 83.78C185.031 83.6529 185.217 83.072 185.525 83.5803C185.73 83.8889 185.832 84.2974 185.879 84.7695C185.935 85.2324 185.898 85.7589 185.832 86.2763C185.702 87.3203 185.506 88.346 185.497 88.9724C185.497 88.9724 185.497 88.8816 185.497 88.7545C185.488 88.6274 185.478 88.4459 185.46 88.2825C185.432 87.9375 185.404 87.5926 185.404 87.5926C184.994 91.1237 185.525 91.9679 185.05 95.1723C185.05 95.1723 184.891 95.5263 184.696 95.8804C184.509 96.2344 184.323 96.5884 184.323 96.5884C184.481 96.1073 184.621 95.6625 184.696 95.254C184.77 94.8455 184.807 94.4733 184.835 94.1284C184.873 93.4385 184.835 92.8757 184.779 92.3583C184.64 91.3325 184.397 90.5246 184.649 89.399C184.146 92.2766 183.857 91.9135 183.652 90.6517C183.54 90.0163 183.485 89.1539 183.363 88.346C183.242 87.529 183.121 86.7665 183.009 86.3308C183.028 87.5472 183.037 88.7091 182.888 89.7349C182.823 90.2432 182.748 90.7152 182.665 91.1419C182.581 91.5685 182.488 91.9498 182.357 92.2675C182.441 93.1662 182.404 94.0739 182.311 94.9908C182.18 95.8985 181.975 96.8063 181.789 97.7049C181.705 98.1588 181.584 98.6036 181.472 99.0484C181.37 99.4932 181.267 99.938 181.193 100.383C181.099 100.828 181.062 101.281 180.988 101.717C180.922 102.153 180.885 102.598 180.885 103.043C180.261 104.84 180.932 101.336 180.373 103.26C179.283 106.764 178.016 110.45 176.637 114.144C175.714 115.951 175.621 115.524 175.137 115.924C174.857 116.459 174.54 116.967 174.261 117.449C173.981 117.939 173.702 118.411 173.45 118.874C173.208 119.346 172.929 119.772 172.677 120.199C172.425 120.635 172.183 121.052 171.95 121.461C171.503 122.296 171.009 123.058 170.562 123.83C170.338 124.211 170.115 124.602 169.891 124.983L169.183 126.099C168.95 126.472 168.708 126.844 168.466 127.216C168.345 127.407 168.214 127.597 168.093 127.788C167.963 127.969 167.832 128.16 167.693 128.351C167.152 129.095 166.593 129.876 165.96 130.684C165.307 131.464 164.609 132.281 163.826 133.144C163.416 133.552 162.997 133.979 162.55 134.424C162.326 134.641 162.093 134.868 161.86 135.095C161.627 135.322 161.385 135.549 161.124 135.767C161.124 135.767 161.189 135.685 161.273 135.567C161.366 135.449 161.478 135.277 161.581 135.104C161.804 134.769 162.019 134.424 162.019 134.424C161.217 135.222 160.388 135.876 159.736 136.511C159.41 136.829 159.121 137.129 158.879 137.419C158.637 137.71 158.422 137.973 158.283 138.236C157.556 138.508 156.783 139.071 155.925 139.761C155.05 140.415 154.146 141.25 153.168 142.049C152.674 142.439 152.171 142.829 151.677 143.22C151.425 143.41 151.174 143.592 150.932 143.783C150.68 143.964 150.419 144.118 150.168 144.282C149.655 144.599 149.152 144.89 148.658 145.126C148.174 145.371 147.689 145.553 147.224 145.662C146.161 146.206 145.388 146.678 144.764 147.105C144.121 147.495 143.637 147.858 143.189 148.203C142.742 148.548 142.332 148.92 141.801 149.274C141.27 149.628 140.655 150.001 139.807 150.436C139.714 150.228 140.562 149.356 138.745 150.073C133.109 152.669 127.388 154.548 121.379 156.055C115.36 157.562 109.025 158.624 101.963 159.396C102.075 159.296 102.773 159.151 103.127 159.087C101.981 159.187 100.845 159.323 99.7081 159.423C98.5714 159.523 97.4348 159.641 96.3074 159.759C94.0528 159.959 91.8168 160.195 89.618 160.34C85.2298 160.658 81.0093 160.83 77.1615 160.549C76.4162 160.621 75.0373 160.612 73.9659 160.676C72.8944 160.73 72.1584 160.839 72.7919 161.084C74.5342 161.239 74.7484 161.765 74.618 162.083C73.7702 162.083 73.0901 162.083 72.5217 162.056C71.9627 162.028 71.5248 161.956 71.1801 161.901C70.4907 161.783 70.1646 161.638 69.9037 161.502C69.6429 161.357 69.4565 161.22 69.0559 161.084C68.6553 160.975 68.0404 160.821 66.9223 160.685C66.2795 160.186 67.0062 160.167 67.882 160.186C68.7671 160.222 69.8292 160.186 69.8665 159.859C69.8665 159.859 69.4659 159.85 68.8696 159.832C68.2733 159.804 67.472 159.732 66.6708 159.668C65.8696 159.605 65.059 159.568 64.4627 159.487C63.8571 159.414 63.4565 159.369 63.4565 159.369C62.5808 159.124 61.6956 158.933 60.8106 158.751C59.9348 158.533 59.0683 158.334 58.2112 158.143C57.7826 158.043 57.3541 157.943 56.9348 157.844C56.5155 157.726 56.1149 157.599 55.7143 157.48C54.913 157.226 54.1398 156.954 53.4037 156.636C54.7267 157.117 54.0279 156.201 56.1801 157.154C55.8261 157.09 56.0404 157.208 55.6957 157.145C56.3385 157.335 56.8603 157.508 57.3075 157.617C57.7547 157.726 58.1087 157.798 58.4068 157.853C59.0031 157.962 59.3478 157.998 59.6832 158.016C60.0186 158.034 60.3354 158.043 60.8572 158.107C61.2391 158.152 61.7236 158.198 62.413 158.297C61.6304 158.179 60.8106 158.052 59.9814 157.862C59.4037 157.744 58.8168 157.608 58.2205 157.49C57.6335 157.362 57.0373 157.235 56.4596 157.063C55.295 156.745 54.1397 156.428 53.0683 156.092C52.0062 155.719 51.0186 155.356 50.1522 155.02C50.3012 155.211 50.1894 155.257 49.9192 155.22C49.6491 155.184 49.2298 155.066 48.7733 154.893C47.8416 154.558 46.6957 154.113 46.146 154.076L45.9503 153.94C45.8478 154.185 43.6677 153.359 42.9783 153.132L42.4286 152.134C40.9099 151.526 42.6894 152.66 41.1894 152.016C40.6584 151.789 39.7919 151.38 38.795 150.89C38.5435 150.763 38.2919 150.636 38.0217 150.509C37.7702 150.364 37.5093 150.209 37.2485 150.064C36.7267 149.756 36.1863 149.438 35.6646 149.129C34.6118 148.521 33.6895 147.822 33 147.268C32.3106 146.705 31.8634 146.27 31.854 146.043C30.7081 145.28 29.9534 144.817 29.1615 144.373C28.9658 144.255 28.7702 144.137 28.5652 144.019C28.4627 143.955 28.3602 143.891 28.2578 143.828C28.1553 143.755 28.0621 143.674 27.9596 143.601C27.5497 143.283 27.0932 142.92 26.5714 142.448C26.8602 142.457 27.4286 142.838 27.5683 142.838C27.0093 142.348 26.4224 141.84 25.8261 141.332C25.5186 141.086 25.2578 140.796 24.9689 140.524C24.6801 140.251 24.4006 139.97 24.1118 139.689C22.9099 138.608 21.8664 137.365 20.7764 136.166C20.4876 135.867 20.2733 135.567 20.0497 135.277C19.8261 134.977 19.5838 134.705 19.3789 134.378C19.1646 134.07 18.9596 133.752 18.7547 133.443C18.5497 133.125 18.3634 132.799 18.177 132.481C17.7857 131.855 17.469 131.165 17.1336 130.529C16.8261 129.867 16.5373 129.222 16.2857 128.578C15.2329 126.599 14.3851 124.638 13.6584 122.859C13.2764 121.978 12.9596 121.116 12.6242 120.326C12.3168 119.527 11.9907 118.792 11.7019 118.102C11.8696 118.701 12.1957 119.881 12.3261 120.653C12.4752 121.415 12.4472 121.788 11.9162 120.753C11.2826 119.627 10.8447 117.73 10.323 115.851C10.7236 116.214 9.73604 110.994 10.6957 114.725C10.9938 114.172 10.5559 112.165 10.3043 110.286C10.0901 108.353 9.87577 106.537 10.3043 106.546C10.2391 106.329 10.1739 105.82 10.118 105.149C10.0621 104.477 9.9969 103.651 9.98758 102.788C9.97826 101.926 9.92237 101.027 9.91306 100.21C9.91306 99.4024 9.87577 98.6762 9.80123 98.1588C9.98757 97.941 10.0062 98.6762 10.0062 99.466C10.0062 99.8654 10.0062 100.274 10.0155 100.583C10.0342 100.891 10.0808 101.1 10.1367 101.1C10.1367 101.1 10.1367 100.946 10.118 100.71C10.118 100.483 10.118 100.174 10.118 99.8563C10.118 99.2391 10.1273 98.6218 10.1273 98.6218H10.3602C10.4534 97.4599 10.5652 96.5249 10.5652 95.7351C10.5652 95.3448 10.5652 94.9817 10.5559 94.6458C10.5559 94.31 10.5559 94.0013 10.5279 93.7108C10.472 92.5308 10.3137 91.5595 10.5466 90.1706L10.6118 90.2977C10.6118 90.2977 10.677 89.8166 10.7422 89.3445C10.7702 89.0994 10.8075 88.8634 10.8354 88.691C10.8727 88.5185 10.8913 88.3914 10.8913 88.3914C10.8913 88.3914 10.8913 88.5366 10.9006 88.7545C10.9193 88.9724 10.9379 89.2719 10.9658 89.5624C11.0124 90.1434 11.0497 90.7243 11.0497 90.7243C11.1801 89.98 11.2547 89.3173 11.3292 88.691C11.413 88.0646 11.4876 87.4837 11.5528 86.8845C11.5901 86.585 11.618 86.2763 11.6553 85.9677C11.7019 85.6591 11.7671 85.3413 11.8323 85.0146C11.9721 84.3519 12.1118 83.6257 12.3633 82.8087L12.6708 82.5546L13.1646 80.5484C13.0808 80.8843 13.1273 81.0295 13.2578 80.8389C13.2671 80.3306 13.4534 79.7133 13.6584 79.0143C13.7702 78.6694 13.882 78.3063 14.0124 77.9432C14.1429 77.5801 14.3012 77.217 14.4596 76.8448C14.7671 76.1095 15.0559 75.3742 15.3447 74.7206C15.6242 74.067 15.8478 73.477 15.9503 73.0141C16.3043 72.4149 16.8354 71.9792 17.3013 71.4436C17.7764 70.9171 18.1863 70.2908 18.4938 69.3921L18.941 70.0639C18.6335 70.545 18.4099 70.9353 18.2143 71.253C18.0186 71.5616 17.8602 71.8067 17.7298 71.9792C17.4689 72.3423 17.3013 72.5057 17.1336 72.6782C16.9659 72.8507 16.8168 73.0413 16.5745 73.4498C16.3416 73.8673 15.9876 74.5028 15.5124 75.6012C15.8012 75.2471 16.1739 74.8205 16.5373 74.3212C16.7236 74.067 16.9193 73.7947 17.1149 73.5042C17.2081 73.359 17.3106 73.2138 17.413 73.0594C17.5155 72.9051 17.6273 72.7508 17.7391 72.5965C18.1863 71.9701 18.6335 71.2802 19.1273 70.5722C19.6398 69.8642 20.1522 69.1107 20.6832 68.3482C22.854 65.3072 25.472 62.0847 27.7453 59.6338C29.413 57.5005 32.0683 55.0496 34.5186 52.9709C36.9503 50.8649 39.1863 49.1129 39.7919 47.9782L39.6056 48.6772C39.6056 48.6772 39.7267 48.5955 39.9317 48.4502C40.146 48.3141 40.4348 48.0962 40.7981 47.8602C41.5342 47.3882 42.4938 46.7437 43.4907 46.1264C45.4565 44.8828 47.4876 43.7299 47.4876 43.7299C50.7764 41.5422 54.3075 39.5997 57.6801 37.8386C58.528 37.3847 59.3385 36.9853 60.1397 36.5859C60.9317 36.1683 61.7329 35.8052 62.5062 35.4331C63.2702 35.0518 64.0342 34.7069 64.7609 34.3528C65.4969 33.9897 66.1957 33.6448 66.8758 33.318C66.8758 33.318 67.295 33.2545 67.7143 33.2C68.1335 33.1364 68.5528 33.082 68.5528 33.082C71.2453 31.4026 76.3416 29.6416 81.2795 28.2346C86.2081 26.7912 90.9689 25.6838 92.9068 24.5673C96.5404 24.2495 91.9379 25.3207 91.6398 25.6566C92.9628 25.4841 94.6677 24.9304 96.3913 24.5128C98.1056 24.0771 99.8385 23.7594 101.152 23.9046C101.18 24.1315 97.472 24.658 99.1677 24.5491C100.155 24.6217 100.817 24.4129 101.525 24.2132C102.224 24.0226 102.969 23.832 104.078 23.9318C103.053 23.605 107.432 22.5339 110.693 22.1799C110.289 22.2041 110 22.2071 109.826 22.1889C109.323 21.8894 111.755 21.7351 113.087 21.5989C113.087 21.5989 112.966 21.6987 112.612 21.7623C120.997 20.8273 130.109 20.4551 139.248 21.1541C140.003 21.2086 140.748 21.2721 141.503 21.3538C141.624 21.4083 141.745 21.4627 141.857 21.5172C142.099 21.6261 142.332 21.7169 142.556 21.8168C142.789 21.9166 143.012 22.0074 143.245 22.0982C143.721 22.2706 144.205 22.4159 144.783 22.5339C143.59 21.8621 143.078 21.9075 142.127 21.4264C142.677 21.4809 143.236 21.5444 143.795 21.6171C146.534 23.2056 148.37 25.0302 150.121 26.3283C150.121 26.3283 149.991 26.2557 149.795 26.1377C149.59 26.0287 149.32 25.8835 149.059 25.7473C148.519 25.4569 147.988 25.1754 147.988 25.1754H148.137C147.913 25.0937 147.587 24.9122 147.233 24.7125C146.87 24.5128 146.469 24.2858 146.096 24.0771C145.36 23.6686 144.736 23.3599 144.773 23.6413C145.826 23.9954 146.665 24.5037 147.531 25.1028C148.388 25.7201 149.329 26.3555 150.587 27.0545H150.438C150.978 27.3813 151.481 27.7172 151.966 28.053C152.432 28.407 152.879 28.7701 153.289 29.1151C154.137 29.8141 154.854 30.5493 155.553 31.2211C156.261 31.8837 156.885 32.5373 157.565 33.082C158.245 33.6175 158.916 34.0987 159.699 34.4527C159.354 34.1441 158.935 33.5994 158.665 33.1546L158.655 33.1092Z" fill="#FFE093"/>
</svg>
