<svg xmlns="http://www.w3.org/2000/svg" style="display: none;">

<symbol id="telegram" viewBox="0 0 24 25" fill="none">
<path d="M21.6 12.5C21.6 15.0461 20.5886 17.4879 18.7882 19.2882C16.9879 21.0886 14.5461 22.1 12 22.1C9.45392 22.1 7.01212 21.0886 5.21178 19.2882C3.41143 17.4879 2.4 15.0461 2.4 12.5C2.4 9.95392 3.41143 7.51212 5.21178 5.71178C7.01212 3.91143 9.45392 2.9 12 2.9C14.5461 2.9 16.9879 3.91143 18.7882 5.71178C20.5886 7.51212 21.6 9.95392 21.6 12.5ZM12 24.5C18.6276 24.5 24 19.1276 24 12.5C24 5.8724 18.6276 0.5 12 0.5C5.3724 0.5 0 5.8724 0 12.5C0 19.1276 5.3724 24.5 12 24.5ZM12.4296 9.3584C11.2632 9.844 8.9308 10.8492 5.4324 12.374C4.8636 12.5996 4.566 12.8204 4.5396 13.0364C4.494 13.4012 4.9512 13.5452 5.574 13.7408L5.8356 13.8248C6.4476 14.024 7.2732 14.2568 7.7016 14.2664C8.0904 14.2744 8.524 14.1144 9.0024 13.7864C12.2712 11.5784 13.9584 10.4628 14.064 10.4396C14.1396 10.4228 14.2428 10.4012 14.3124 10.4636C14.3832 10.526 14.376 10.6436 14.3688 10.676C14.3232 10.8692 12.528 12.5384 11.5992 13.4012C11.324 13.6604 11.0508 13.9216 10.7796 14.1848C10.2108 14.7332 9.7836 15.1448 10.8036 15.8168C11.8368 16.4984 12.8796 17.1776 13.8876 17.8964C14.3844 18.2516 14.8308 18.5684 15.3828 18.5192C15.7032 18.4892 16.0344 18.188 16.2024 17.288C16.6008 15.164 17.382 10.5584 17.562 8.66C17.5725 8.50253 17.5656 8.34438 17.5416 8.1884C17.5274 8.06286 17.4666 7.94723 17.3712 7.8644C17.2272 7.7468 17.0052 7.7228 16.9068 7.724C16.4556 7.7324 15.7632 7.9724 12.4308 9.3584" fill="currentColor"/>
</symbol>

<symbol id="whatsapp"  viewBox="0 0 24 25" fill="none" xmlns="http://www.w3.org/2000/svg">
<path d="M20.5025 3.99206C19.3967 2.88099 18.0796 2.00002 16.6282 1.4005C15.1767 0.800974 13.6198 0.494884 12.0482 0.500065C5.46332 0.500065 0.0964826 5.84005 0.0964826 12.392C0.0964826 14.492 0.651256 16.532 1.68844 18.332L0 24.5L6.33166 22.844C8.0804 23.792 10.0462 24.296 12.0482 24.296C18.6332 24.296 24 18.956 24 12.404C24 9.22404 22.7578 6.23605 20.5025 3.99206ZM12.0482 22.28C10.2633 22.28 8.51457 21.8 6.98291 20.9L6.6211 20.684L2.85829 21.668L3.8593 18.02L3.61809 17.648C2.62619 16.0725 2.09961 14.2512 2.09849 12.392C2.09849 6.94405 6.5608 2.50406 12.0362 2.50406C14.6894 2.50406 17.1859 3.53606 19.0553 5.40805C19.981 6.32469 20.7147 7.4151 21.2136 8.61604C21.7126 9.81698 21.9669 11.1045 21.9618 12.404C21.9859 17.852 17.5236 22.28 12.0482 22.28ZM17.4995 14.888C17.198 14.744 15.7266 14.024 15.4613 13.916C15.1839 13.82 14.991 13.772 14.7859 14.06C14.5809 14.36 14.0141 15.032 13.8452 15.224C13.6764 15.428 13.4955 15.452 13.194 15.296C12.8925 15.152 11.9276 14.828 10.794 13.82C9.90151 13.028 9.31055 12.056 9.12965 11.756C8.9608 11.456 9.10553 11.3 9.26231 11.144C9.39497 11.012 9.56382 10.796 9.70854 10.628C9.85327 10.46 9.91357 10.328 10.01 10.136C10.1065 9.93204 10.0583 9.76404 9.98593 9.62004C9.91357 9.47604 9.31055 8.01204 9.06935 7.41205C8.82814 6.83605 8.57487 6.90805 8.39397 6.89605H7.81507C7.61005 6.89605 7.29648 6.96805 7.01909 7.26805C6.75377 7.56805 5.98191 8.28804 5.98191 9.75204C5.98191 11.216 7.05528 12.632 7.2 12.824C7.34472 13.028 9.31055 16.028 12.3015 17.312C13.0131 17.624 13.5678 17.804 14.002 17.936C14.7136 18.164 15.3648 18.128 15.8834 18.056C16.4623 17.972 17.6563 17.336 17.8975 16.64C18.1508 15.944 18.1508 15.356 18.0663 15.224C17.9819 15.092 17.801 15.032 17.4995 14.888Z" fill="currentColor"/>
</symbol>


<symbol id="instagram" viewBox="0 0 25 25" fill="none">
<path d="M12.5012 9.37499C11.6724 9.37499 10.8775 9.70423 10.2915 10.2903C9.70544 10.8763 9.3762 11.6712 9.3762 12.5C9.3762 13.3288 9.70544 14.1237 10.2915 14.7097C10.8775 15.2958 11.6724 15.625 12.5012 15.625C13.33 15.625 14.1249 15.2958 14.7109 14.7097C15.297 14.1237 15.6262 13.3288 15.6262 12.5C15.6262 11.6712 15.297 10.8763 14.7109 10.2903C14.1249 9.70423 13.33 9.37499 12.5012 9.37499ZM12.5012 7.29166C13.8825 7.29166 15.2073 7.84039 16.1841 8.81715C17.1608 9.7939 17.7095 11.1187 17.7095 12.5C17.7095 13.8813 17.1608 15.2061 16.1841 16.1828C15.2073 17.1596 13.8825 17.7083 12.5012 17.7083C11.1199 17.7083 9.79511 17.1596 8.81836 16.1828C7.8416 15.2061 7.29287 13.8813 7.29287 12.5C7.29287 11.1187 7.8416 9.7939 8.81836 8.81715C9.79511 7.84039 11.1199 7.29166 12.5012 7.29166ZM19.272 7.03124C19.272 7.37658 19.1349 7.70777 18.8907 7.95196C18.6465 8.19614 18.3153 8.33333 17.97 8.33333C17.6246 8.33333 17.2934 8.19614 17.0492 7.95196C16.8051 7.70777 16.6679 7.37658 16.6679 7.03124C16.6679 6.68591 16.8051 6.35472 17.0492 6.11053C17.2934 5.86634 17.6246 5.72916 17.97 5.72916C18.3153 5.72916 18.6465 5.86634 18.8907 6.11053C19.1349 6.35472 19.272 6.68591 19.272 7.03124ZM12.5012 4.16666C9.92412 4.16666 9.50329 4.17395 8.30433 4.22708C7.48766 4.26562 6.93975 4.37499 6.43141 4.57291C6.00624 4.72955 5.62175 4.97982 5.30641 5.3052C4.98066 5.62043 4.73002 6.00493 4.57308 6.4302C4.37516 6.94062 4.26579 7.48749 4.22829 8.30312C4.17412 9.45312 4.16683 9.8552 4.16683 12.5C4.16683 15.0781 4.17412 15.4979 4.22725 16.6969C4.26579 17.5125 4.37516 18.0615 4.57204 18.5687C4.74912 19.0219 4.95745 19.3479 5.30329 19.6937C5.65433 20.0437 5.98037 20.2531 6.42829 20.426C6.94287 20.625 7.49079 20.7354 8.30329 20.7729C9.45329 20.8271 9.85537 20.8333 12.5002 20.8333C15.0783 20.8333 15.4981 20.826 16.697 20.7729C17.5116 20.7344 18.0595 20.625 18.5689 20.4281C18.9941 20.2715 19.3786 20.0212 19.6939 19.6958C20.045 19.3458 20.2543 19.0198 20.4272 18.5708C20.6252 18.0583 20.7356 17.5104 20.7731 16.6958C20.8272 15.5469 20.8335 15.1437 20.8335 12.5C20.8335 9.92291 20.8262 9.50208 20.7731 8.30312C20.7345 7.48854 20.6241 6.93854 20.4272 6.4302C20.2706 6.00503 20.0203 5.62054 19.695 5.3052C19.3797 4.97945 18.9952 4.72881 18.57 4.57187C18.0595 4.37395 17.5116 4.26458 16.697 4.22708C15.5481 4.17291 15.146 4.16666 12.5002 4.16666M12.5002 2.08333C15.3304 2.08333 15.6835 2.09374 16.795 2.14583C17.9033 2.19791 18.6595 2.37187 19.3231 2.6302C20.0106 2.89479 20.5897 3.25312 21.1689 3.83124C21.6988 4.3518 22.1087 4.98174 22.37 5.67708C22.6272 6.34062 22.8022 7.09687 22.8543 8.20624C22.9033 9.31666 22.9168 9.66979 22.9168 12.5C22.9168 15.3302 22.9064 15.6833 22.8543 16.7937C22.8022 17.9042 22.6272 18.6583 22.37 19.3229C22.1087 20.0183 21.6988 20.6482 21.1689 21.1687C20.6484 21.6986 20.0184 22.1085 19.3231 22.3698C18.6595 22.6271 17.9033 22.8021 16.795 22.8542C15.6835 22.9031 15.3304 22.9167 12.5002 22.9167C9.66995 22.9167 9.31683 22.9062 8.20537 22.8542C7.09704 22.8021 6.34183 22.6271 5.67725 22.3698C4.9819 22.1085 4.35197 21.6986 3.83141 21.1687C3.30152 20.6482 2.89164 20.0183 2.63037 19.3229C2.37204 18.6594 2.19808 17.9031 2.146 16.7937C2.096 15.6833 2.0835 15.3302 2.0835 12.5C2.0835 9.66979 2.09391 9.31666 2.146 8.20624C2.19808 7.09583 2.37204 6.34166 2.63037 5.67708C2.89164 4.98174 3.30152 4.3518 3.83141 3.83124C4.35197 3.30136 4.9819 2.89147 5.67725 2.6302C6.34079 2.37187 7.096 2.19791 8.20537 2.14583C9.31787 2.09687 9.671 2.08333 12.5012 2.08333" fill="currentcolor"/>
</symbol>

<symbol id="logo"  viewBox="0 0 150 98" fill="none">
<path d="M31.4449 55.3038C31.6873 56.3696 31.4998 57.6681 30.8956 58.4251C30.2914 59.1822 29.282 59.2287 28.7441 58.4227C28.2157 57.6264 28.3615 56.1466 29.0547 55.6223C29.0661 55.615 29.085 55.5439 29.085 55.5439C28.0471 54.8824 26.8899 55.9678 26.5282 57.3986C26.1835 58.7632 26.4619 60.292 27.0206 61.4166C29.0642 65.5179 34.0111 64.3615 35.8918 60.3239C37.8085 56.2079 36.3388 51.0702 33.2536 48.8922C30.6986 47.0914 27.5377 46.942 24.7176 47.3854C20.6892 48.02 16.1646 50.0265 12.1021 52.3785C12.7782 48.8505 14.4752 39.7659 14.7706 37.8378C15.0983 39.7267 16.4505 46.719 16.8047 48.4634C19.0471 47.4638 20.9524 46.8342 22.5149 46.4397L19.068 30.1129C16.2498 32.7491 12.7555 32.83 10.0339 33.1436V33.4106C10.0339 33.4106 11.1778 33.5331 11.8558 34.6969C12.4392 35.6989 12.3445 37.0268 12.1551 38.144L9.02629 54.4586C7.96948 55.2156 6.99789 55.7767 5.76872 55.8281C4.27629 55.8918 3.87478 53.726 4.77251 52.7411C5.39183 52.0625 6.41645 52.1752 7.07175 53.1454C7.64561 51.548 5.38046 48.9559 3.34448 49.8844C1.30849 50.813 0.369097 54.3875 1.0547 56.5533C1.68728 58.5525 3.10016 60.1009 5.39751 59.9049C6.13614 59.8412 7.34258 59.2924 8.25736 58.4668L7.42402 62.8106C6.81228 66.0005 5.72137 67.9409 4.89372 68.6759C4.06607 69.4134 3.32175 69.776 3.32175 69.776V70.3713H12.3786V69.8078C10.0074 68.8401 9.49978 65.9466 10.1949 62.3133C10.2574 61.9899 10.7687 59.2973 11.3653 56.1883C11.8483 55.9163 12.5055 55.6076 12.5055 55.6076C13.6721 55.0588 14.9543 54.51 16.2782 53.9612C19.068 52.844 21.9051 52.0233 24.7214 51.6215C26.9714 51.3005 30.6702 51.9228 31.4411 55.3063H31.4449V55.3038Z" fill="currentcolor"/>
<path d="M44.6666 55.3357V55.2402C44.6666 55.1373 44.6609 55.0368 44.659 54.9339V54.9021C44.6439 54.4439 44.6155 53.9809 44.5738 53.5105C44.5643 53.3978 44.553 53.29 44.5416 53.1797C44.1136 48.9902 42.7329 45.7464 41.7727 44.3622C40.284 42.2233 38.4905 41.0743 35.5814 41.1355C32.8352 41.1943 27.678 41.1551 26.5624 41.1404V41.4075C26.5624 41.4075 28.945 42.2356 28.9924 44.5655C28.9961 44.8007 29.0018 45.2613 29.0056 45.891C30.8162 46.1164 32.4147 46.7142 33.7745 47.6721C33.9999 47.8314 34.2177 48.0053 34.428 48.1891V43.7644C34.428 42.9681 35.0037 42.2968 35.8882 42.9191C37.6022 44.7223 39.4374 48.4635 39.5567 55.3039C39.5567 55.4533 39.5605 55.6003 39.5605 55.7473C39.5605 55.8943 39.5605 56.0413 39.5567 56.1908C39.4393 63.0312 37.6022 66.7723 35.8882 68.5755C35.0037 69.1978 34.428 68.529 34.428 67.7303V64.0577C33.3465 64.8858 32.0946 65.3587 30.8238 65.3587C30.1855 65.3587 29.5757 65.2337 29.0075 65.001C29.0037 65.7776 28.998 66.3411 28.9942 66.6131C28.981 67.3309 28.8465 67.9508 28.5189 68.4898C26.4014 66.5812 26.1079 63.1831 25.2083 59.1455L23.9412 53.1405C22.0549 53.4713 20.0965 54.0029 18.0908 54.7208C18.6552 57.4917 19.1192 59.7727 19.1192 59.7727C19.2954 60.6424 19.4677 61.4901 19.6344 62.3035C20.3711 65.9246 19.8219 68.8328 17.4507 69.8005V70.364C17.4507 70.364 34.2878 70.3346 35.5852 70.364C38.4961 70.4253 40.2878 69.2762 41.7764 67.1374C42.7386 65.7531 44.1174 62.5093 44.5454 58.3198C44.5567 58.2096 44.5662 58.0993 44.5776 57.9915C44.6192 57.5187 44.6477 57.0556 44.6628 56.5975V56.5656C44.6666 56.4627 44.6685 56.3598 44.6704 56.2594V56.1638C44.6704 56.083 44.6704 55.9997 44.6742 55.9188V55.5807C44.6742 55.4999 44.6742 55.419 44.6704 55.3357H44.6666Z" fill="currentcolor"/>
<path d="M98.2213 37.3551C87.691 28.8977 82.1929 41.133 88.8672 43.7374C87.3975 41.2825 90.0736 35.8337 96.263 40.2927V59.7481C96.2838 64.4766 94.3975 64.2659 94.1702 64.2806V64.5501C97.763 65.8903 100.808 67.985 103.738 70.1459V69.7662C103.119 69.215 101.558 67.8405 101.646 64.2537V43.7839C106.11 45.543 111 44.7468 111.316 38.4135C107.841 44.2396 102.326 40.6504 98.2232 37.3551H98.2213Z" fill="currentcolor"/>
<path d="M136.483 71.1896C136.358 70.93 136.239 70.6629 136.129 70.3934C135.905 69.8593 135.714 69.3276 135.566 68.8033C135.186 67.5661 134.911 66.346 134.667 65.4199C133.261 60.1156 131.328 57.9939 129.686 57.1462C131.013 56.7934 134.203 55.3161 134.203 49.2646C134.203 41.6206 129.057 41.1698 127.267 41.1698L114.523 41.1355V41.4026C115.265 41.6598 116.292 42.532 116.292 44.198C116.292 46.1678 116.305 60.025 116.305 60.025C116.305 65.3194 115.422 67.2672 112.549 67.2672C108.936 67.2672 109.135 62.5044 109.135 59.9123V44.9305C108.142 45.5504 106.939 45.8812 105.563 45.8812C105.053 45.8812 104.529 45.8346 103.994 45.7488C104.004 50.7248 104.006 60.6742 104.006 60.6816C104.006 62.5705 103.93 64.4987 104.413 66.3068C104.767 67.6323 105.383 68.7568 106.381 69.602L106.466 69.678C109.08 72.0422 114.032 71.4837 115.019 70.8614C115.148 70.8075 115.26 70.7462 115.366 70.6849C115.447 70.6409 115.523 70.5967 115.591 70.5502C116.691 69.798 117.504 68.5608 117.953 67.0663C118.449 65.4174 118.508 61.4435 118.506 59.6942C118.506 59.6942 118.508 45.6753 118.511 44.198C118.511 43.4703 118.818 42.8284 119.218 42.3384H119.235C120.379 42.679 120.498 44.8938 120.498 46.5965L120.519 64.0871C120.519 65.1308 120.523 66.3362 120.527 67.4142L120.523 67.3922C120.493 71.3391 120.627 75.656 118.909 77.3269C118.496 77.7287 117.894 78.1158 117.159 77.8928C115.082 77.2607 115.042 73.6617 116.945 72.8409C113.479 71.4273 111.332 75.0729 112.689 77.7458C112.229 77.5572 111.75 77.3416 111.246 77.0844C105 73.4216 97.68 65.4174 89.1024 64.8C82.9262 64.3541 77.0721 68.1345 77.8618 75.7883C78.6062 83.0697 88.2482 83.2338 86.1743 74.3894C86.144 77.322 82.0531 78.0986 82.4073 73.7817C82.8637 68.2031 92.3789 68.6392 95.9471 70.903C89.4565 72.1427 93.8883 83.5695 98.4205 77.8659C94.0872 76.5405 97.4812 70.9789 102.186 73.5931C106.475 75.9769 108.224 77.1995 110.754 78.7994C113.748 80.6932 125.722 85.5271 125.722 69.3987V69.357L125.714 58.1948C126.032 58.1728 126.661 58.3492 127.474 59.6942C127.487 59.7163 127.5 59.7408 127.513 59.7653C128.082 60.9584 128.392 62.4456 128.731 63.722C128.974 64.6383 129.225 65.5498 129.481 66.4587C129.493 66.5028 129.502 66.5493 129.513 66.591C129.525 66.6375 129.546 66.6841 129.559 66.7331C129.701 67.2353 129.841 67.7352 129.987 68.235C130.354 69.4894 132.379 77.1187 139.739 75.9916C140.945 75.8079 142.871 74.7225 143.576 73.2207C142.54 73.892 141.278 74.2031 140.254 74.2031C138.489 74.2031 137.316 72.8826 136.493 71.1921H136.483V71.1896ZM129.451 50.127C129.451 56.0928 126.741 56.595 126.188 56.1785C125.769 55.8649 125.707 55.0393 125.707 54.0274V45.2441C125.707 44.2323 125.769 43.4066 126.188 43.093C126.741 42.6765 129.451 43.1812 129.451 49.1445V50.127Z" fill="currentcolor"/>
<path d="M85.3237 27.3543C85.6078 27.4743 85.9998 27.4204 86.1096 27.075C86.5509 25.2203 86.4922 23.0643 86.5509 20.9892C86.5509 20.7932 86.6456 20.4183 86.7384 20.5849C87.4165 22.2558 88.104 23.7478 88.8464 25.3011C89.2252 26.0876 89.5604 26.8422 90.2649 26.7908C90.9581 26.6707 91.5225 25.9847 91.8369 25.2595C92.6267 22.3587 92.121 18.9728 90.9884 16.5522C90.5793 15.7486 90.1059 14.7 89.3521 14.4575C89.0093 14.3987 89.0471 15.0038 89.1286 15.3444C89.5396 17.5592 90.1684 19.698 90.3274 22.0353C90.3578 22.518 90.4828 23.1623 90.2309 23.569C88.8786 21.4351 88.0869 18.8944 86.4543 17.0373C86.1968 16.7654 85.8805 17.0422 85.7309 17.4048C84.9752 19.3771 84.6835 21.5527 84.568 23.8532C84.5055 25.0807 84.3142 26.7148 85.3218 27.3591V27.3543H85.3237Z" fill="currentcolor"/>
<path d="M75.2536 20.3031C75.3407 20.6976 75.693 21.1116 76.0093 21.2292C78.1153 21.8344 80.8237 21.1116 82.6153 22.9246C82.8369 23.2848 82.6381 23.6694 82.3653 23.8507C80.7006 24.7376 78.9316 25.3673 76.979 24.843C76.7157 24.7548 76.3237 24.3995 76.4506 24.0516C77.2347 22.5204 78.5585 24.0124 79.5339 24.2134C80.0206 24.3481 81.1078 24.1741 81.6419 23.4489C81.8104 23.0398 81.2195 22.7874 80.8237 22.6429C79.4373 22.1602 77.4884 21.5943 76.1987 22.7237C75.8312 23.0398 75.5377 24.0124 75.7877 24.7793C76.8578 26.9965 78.9108 27.7413 80.8237 27.3591C82.1248 27.0994 83.6873 26.5139 84.0017 24.62C84.1513 23.422 84.0964 22.121 83.3085 21.2733C81.4847 19.7029 78.8672 20.5481 76.8578 19.502C76.7934 19.3819 76.835 19.3403 76.9525 19.2619C79.0926 18.4142 81.6115 18.7376 83.8142 18.054C84.1305 17.9291 84.4297 17.2774 84.2877 16.9662C83.9714 16.5595 83.5623 16.4934 83.1229 16.4003C80.4562 15.8221 77.4544 15.9985 75.5377 18.3774C75.2006 18.8405 75.2214 19.7078 75.2536 20.313V20.3031Z" fill="currentcolor"/>
<path d="M92.6896 25.5437C92.9264 26.6413 93.3393 27.8247 93.951 28.0035C95.9018 28.4862 97.5078 27.0774 98.9832 25.6638C99.2389 25.3306 98.7502 24.3212 98.576 24.2918C97.254 24.0884 96.0249 24.8161 94.7048 24.7769C94.8317 23.9708 94.9908 23.2799 95.3071 22.5939C96.3847 22.3906 97.9908 22.6797 98.6366 22.0329C98.826 21.7536 98.7484 20.8691 98.576 20.7442C97.7559 20.3816 96.684 20.5188 95.862 20.5775C95.9927 20.0386 96.1309 19.4359 96.2787 18.8895C96.9699 18.9704 97.6631 18.914 98.2919 18.8454C98.9643 18.7768 99.773 18.9263 100.243 18.2427C100.381 17.8973 99.8506 16.9614 99.5514 16.6723C99.2521 16.3807 99.1234 16.2558 98.9529 16.2264C97.701 16.001 95.0476 16.6723 93.1934 17.0324C92.9415 17.0716 93.004 17.3558 93.0665 17.5984C93.2237 18.5661 94.0419 18.4044 94.576 18.7695C94.3563 19.4138 94.2332 20.0974 93.915 20.7025C93.6347 20.825 93.1593 20.7417 93.129 21.3077C93.1006 21.6507 93.3165 21.8761 93.2957 22.3293C93.0021 23.2873 92.4946 24.2942 92.6878 25.5413H92.6896V25.5437Z" fill="currentcolor"/>
<path d="M73.2708 16.3513C72.9204 16.3121 72.8011 16.9932 72.7367 17.319C72.4526 19.7372 72.3352 22.4395 72.3901 25.061C72.4128 26.0386 72.2973 27.3567 73.2405 27.5992C73.6174 27.7193 74.32 27.5992 74.375 27.2758C74.5625 24.2133 74.3087 20.7858 74.1231 17.6424C74.1041 17.319 73.7746 16.513 73.2727 16.3513H73.2708Z" fill="currentcolor"/>
<path d="M47.3976 7.68565C47.5548 7.5656 47.837 7.5656 47.8692 7.28385C47.6495 6.6787 47.0207 6.88205 46.6741 6.55865C46.8635 6.3161 47.1476 6.39695 47.3673 6.23525C53.5984 5.06905 59.7347 7.53375 64.6154 12.0417C67.1968 14.4256 69.6533 17.9658 68.8029 22.2362C67.6893 26.3644 63.3256 26.999 59.926 26.9549C59.1703 26.9426 58.5207 26.7907 57.8484 26.4698C57.8711 23.8948 57.8313 20.6976 57.7953 19.0536C59.1968 18.9483 61.9071 19.4971 63.7025 20.504C64.0491 20.7931 63.0415 21.6702 62.6627 22.1186C62.4544 22.4346 63.2215 22.736 63.7328 22.6821C64.5188 22.5179 65.1817 21.7143 65.4961 20.7858C65.7158 19.9013 65.3843 19.208 64.9582 18.6102C63.0396 16.513 60.3995 16.5228 57.818 16.4444C57.7896 15.2806 57.7707 13.5436 57.5984 12.4974C57.426 11.4562 57.0283 10.9931 56.4317 10.8314C55.9582 11.5174 55.8824 12.4068 55.801 13.3304C55.7006 14.4574 55.6078 15.6824 55.5188 16.7163C55.5188 16.7163 54.1135 17.0691 53.284 17.319C52.4544 17.5714 49.1968 18.9091 49.4752 21.0283C49.8446 22.9124 52.1817 25.1835 53.7877 26.5114C54.3105 26.9426 54.8427 27.3224 55.426 27.6776C55.4923 28.6552 55.6135 29.6107 56.1173 30.38C56.2802 30.5711 56.8484 30.4951 57.284 30.38C57.818 30.0982 57.8332 29.3608 57.8824 28.8071C58.4449 28.9345 59.1135 29.1354 60.0889 29.2922C63.9923 29.9145 68.7707 28.4861 70.9127 23.4881C72.7063 18.691 69.5908 14.0409 67.2537 11.4488C66.926 11.0887 65.765 9.87595 65.1514 9.3786C60.0415 5.2675 53.443 2.3667 47.0207 4.7432C46.2025 5.1058 45.8237 6.19605 45.6987 7.16135C46.1097 7.8057 46.7385 7.68565 47.3995 7.68565H47.3976ZM55.3597 25.502C53.4639 24.7768 51.4582 23.4073 50.1343 21.1508C49.8237 20.5212 50.9847 20.1414 51.551 19.9381C52.801 19.4922 54.1324 19.2937 55.4866 19.2129C55.373 21.4497 55.3483 23.934 55.3597 25.502Z" fill="currentcolor"/>
<path d="M71.288 15.1043C71.8846 15.5061 72.0153 14.5996 72.3259 14.2565C74.0873 15.1434 75.788 14.0973 77.11 12.767C78.1498 11.64 79.4092 10.2655 78.9055 8.4133C78.6195 7.6881 78.0229 7.2422 77.4263 7.2422C76.8278 6.23525 75.8846 5.9143 74.9377 6.076C73.0172 6.51945 70.9092 8.0115 70.2824 10.5497C70.1252 11.5591 70.3127 12.4852 70.8808 13.1712C70.8164 13.7935 70.7539 14.6608 71.288 15.1067V15.1043ZM74.1062 10.7849C75.0267 9.63585 76.2748 8.2026 77.4547 8.6926C77.5986 8.75385 77.6801 8.82735 77.771 9.1385C77.9793 9.8441 77.2672 10.9466 76.5911 11.466C75.5513 12.1912 74.4055 12.7498 73.0854 12.5513C73.2558 11.929 73.5892 11.4268 74.1062 10.7873V10.7849ZM72.1384 9.4178C72.5664 8.8788 73.1763 8.3692 73.8051 8.41085C72.9206 9.2561 72.1725 10.3145 71.5702 11.4758C71.2539 10.7506 71.7596 10.0229 72.1365 9.4178H72.1384Z" fill="currentcolor"/>
<path d="M100.716 25.6221C99.8352 28.6037 99.0795 31.6687 98.9204 35.0129C98.9545 35.8606 99.4886 36.5858 100.057 37.0317C100.244 37.1493 100.697 37.4727 100.748 37.191C101.189 33.9692 101.818 30.8626 102.697 27.8393C103.53 27.9765 104.042 27.9496 105.151 27.3199C107.042 26.1513 108.837 23.6106 108.934 20.8299C108.96 19.3378 108.523 17.9242 107.517 17.0789C107.191 16.8192 106.856 16.9442 106.54 17.1206C104.587 18.5734 102.233 21.9348 101.691 23.4048C101.602 20.5481 103.487 18.7327 103.644 16.1136C103.648 15.4595 102.96 16.1651 102.733 16.5546C101.095 19.0561 99.3636 22.3611 100.716 25.6245V25.6221ZM107.294 19.0928C107.545 18.7817 107.704 20.3423 107.642 20.9891C107.42 22.8805 105.598 24.4853 104.682 24.816C104.375 24.9263 104.239 24.9263 103.898 24.9361C104.417 23.3901 105.816 20.7441 107.295 19.0904H107.294V19.0928Z" fill="currentcolor"/>
<path d="M69.1381 68.4897C68.7101 68.2374 68.6457 67.5808 68.6457 66.7747V56.7395C68.6457 56.0976 68.729 55.8404 68.9753 55.7081C69.4298 55.4606 71.9317 56.3769 72.8105 61.3676H72.9525V47.9783H72.8105C71.9317 52.9714 69.4317 53.8853 68.9753 53.6378C68.729 53.5031 68.6457 53.2458 68.6457 52.6064V44.737C68.6457 43.931 68.7139 43.2866 69.1381 43.022C69.873 42.5663 73.7366 43.196 75.7972 50.0388H75.9393V41.1306L56.4355 41.1649V41.4565C58.2196 42.1841 58.6022 44.4944 58.0775 47.2262C57.9601 47.8338 54.8578 64.19 54.6362 65.6404C54.39 64.217 51.1097 47.8387 50.9847 47.2262C50.4317 44.5018 50.8427 42.1816 52.6268 41.454V41.16H40.9961V41.4515C43.2953 42.1792 44.7707 45.2907 45.3181 47.7676L50.087 70.3591C52.4696 70.3517 55.8844 70.3591 55.8844 70.3591L60.3029 47.2262C60.9715 44.2225 61.4355 42.9656 62.2385 42.238C62.9014 42.8774 63.3029 43.7937 63.3313 45.3862L63.3351 54.7134V56.6048L63.3313 65.9319C63.2878 68.4309 62.3256 69.2664 60.8787 69.9744V70.19H60.8806V70.3591H76.1665V59.4076H76.0245C73.9772 66.6645 70.0984 69.0532 69.1362 68.4848V68.4897H69.1381Z" fill="currentcolor"/>
<path d="M78.5301 68.0634C78.5831 67.985 78.6342 67.9042 78.6891 67.8283C79.6399 66.5004 80.9088 65.4395 82.3937 64.6873L82.388 64.3444C80.5944 64.7339 80.9107 60.4243 80.9126 58.8L80.8918 50.4896C80.8918 50.4896 84.0149 57.6485 86.5982 63.4599C87.4259 63.3692 88.2801 63.3497 89.1532 63.4109C90.5944 63.5138 91.9979 63.7857 93.3634 64.2635C93.3615 57.5946 93.3577 44.764 93.3577 44.0559C93.3577 42.5026 93.7611 41.8607 94.6096 41.4123V41.1649L89.8937 41.1477L89.8899 41.4148C90.6323 41.672 91.2516 42.3997 91.2516 43.8329C91.2554 45.8027 91.2592 55.7252 91.2592 55.7252V58.0919L83.4751 41.1306H76.4505L76.4448 41.3756C77.0452 41.5177 78.5319 41.9048 78.5357 45.5234C78.5319 49.8428 78.5301 68.061 78.5301 68.061V68.0634Z" fill="currentcolor"/>
<path d="M148.491 59.4125C146.443 66.6694 142.564 69.0581 141.602 68.4897C141.174 68.2374 141.11 67.5808 141.11 66.7747V56.7395C141.11 56.0976 141.193 55.8404 141.439 55.7081C141.894 55.4607 144.396 56.3769 145.275 61.3676H145.417V47.9783H145.275C144.396 52.9714 141.896 53.8853 141.439 53.6378C141.193 53.5031 141.11 53.2458 141.11 52.6064V44.737C141.11 43.931 141.178 43.2866 141.602 43.022C142.337 42.5663 146.201 43.196 148.261 50.0388H148.403V41.1306H133.345V41.3462C134.826 42.0689 135.801 44.1808 135.801 46.817V65.4395C135.839 65.589 135.879 65.7433 135.919 65.905C136.102 66.6375 136.311 67.4681 136.563 68.2864L136.574 68.3231C136.699 68.7641 136.866 69.237 137.07 69.727C137.163 69.9524 137.256 70.1607 137.35 70.3615H148.633V59.4101H148.491V59.4125Z" fill="currentcolor"/>
</symbol>

</svg>

